<?xml version="1.0" standalone="no"?>
<!DOCTYPE svg PUBLIC "-//W3C//DTD SVG 1.1//EN" "http://www.w3.org/Graphics/SVG/1.1/DTD/svg11.dtd" >
<svg xmlns="http://www.w3.org/2000/svg" xmlns:xlink="http://www.w3.org/1999/xlink" version="1.1">
<metadata>
Created by FontForge 20200511 at Thu Feb 15 07:53:27 2018
 By convertio
DmitriyChirkov (C) 2018
</metadata>
<defs>
<font id="MoonTime-Regular" horiz-adv-x="660" >
  <font-face 
    font-family="MoonTime"
    font-weight="400"
    font-stretch="normal"
    units-per-em="1000"
    panose-1="0 0 5 0 0 0 0 0 0 0"
    ascent="800"
    descent="-200"
    x-height="252"
    cap-height="588"
    bbox="-200 -400 1057.44 700"
    underline-thickness="50"
    underline-position="-100"
    unicode-range="U+0020-25CA"
  />
<missing-glyph horiz-adv-x="550" 
d="M451 700v-1100h-349v1100h349zM366 626h-181v-36h71v-41h-72v-36h182v36h-72v41h72v36zM294 484h-110v-114h182v37h-72v77zM256 447v-40h-36v40h36zM366 340h-182v-36h72v-41h-72v-36h110v77h72v36zM366 274h-36v-72h-146v-38h182v110zM366 140h-110v-61h38v25h36v-52
h-110v88h-36v-124h182v124zM366 -50h-182v-124h182v124zM330 -87v-51h-110v51h110zM366 -200h-182v-36h77l-77 -52v-36h182v36h-112l77 52h35v36z" />
    <glyph glyph-name="f_f" unicode="ff" horiz-adv-x="336" 
d="M168 135l-5 -22l6 -2q3 0 5.5 1.5t4.5 2.5q5 3 34 19q7 5 52 31l86 52l16 9l4 1q8 0 11 -7q1 -2 1 -5q0 -5 -4 -8q-4 -4 -10 -7q-8 -5 -62 -38q-59 -37 -107 -63l-36 -22q-9 -7 -4 -16l9 -15q42 -72 42 -157q0 -40 -9 -80q-5 -23 -17 -39q-12 -15 -25 -15q-15 0 -25 16
q-9 15 -15 33q-11 33 -13 71q-1 12 -1 36q0 87 28 191q10 38 19 64q0 2 2.5 8.5t-0.5 12.5v-1h-2q-6 0 -11 -5q-62 -51 -106 -70q-11 -3 -6 -14q18 -45 18 -94q0 -69 -30 -132q-6 -17 -22 -24q-6 -2 -10 -2q-12 0 -19 12q-6 11 -6 29q-3 51 9 111q41 228 154 438
q22 42 48 77q2 2 10.5 11.5t18.5 15.5q7 4 14 4q8 0 13.5 -6t6.5 -16v-6q0 -14 -5 -29q-9 -27 -21 -54q-54 -112 -150 -255q-5 -9 -9.5 -14t-11.5 -7q-6 -1 -6 -9q-2 -3 1 -6q1 -1 2.5 -1.5t2.5 0.5l22 11q57 36 111 88q12 12 19 34q32 81 70 154q26 50 50 83q20 26 34 35
q12 8 20 8q5 0 11 -3q8 -5 9.5 -11t1.5 -19q-1 -19 -17 -51q-19 -40 -45 -79q-64 -93 -108 -138q-14 -16 -20 -33zM244 336q-2 -6 -4 -14q4 0 9 7q61 76 95 143q12 24 16 42q2 3 -1 6q-2 2 -4.5 1t-3.5 -1q-13 -11 -23.5 -26.5t-12.5 -18.5q-41 -66 -71 -139zM53 202
q4 1 5.5 4t2.5 4q81 130 124 218q7 15 23 55q7 18 6 30q0 3 -3 4h-3q-2 -2 -5 -4.5t-6 -5.5q-22 -26 -45 -68q-52 -93 -98 -223q-5 -9 -1 -14zM156.5 186.5q0.5 0.5 -0.5 1.5q0 -1 -1 -1q1 -1 1.5 -0.5zM24 4q0 12 -2 34q-2 16 -9 24q-7 -3 -9 -15l-4 -22q-6 -26 -8 -40
q-8 -56 -8 -84l2 -18q0 -2 3 -5q4 0 5 2q4 4 5 7q25 59 25 117zM187 -112q0 69 -31 132q-4 9 -11 9l-2 -2l-3 -11q-10 -50 -10 -105q0 -32 2 -49q4 -41 17 -67l3.5 -7t8.5 -4q5 0 7.5 4.5t2.5 5.5q6 12 7 20q9 37 9 74z" />
    <glyph glyph-name=".notdef" horiz-adv-x="550" 
d="M451 700v-1100h-349v1100h349zM366 626h-181v-36h71v-41h-72v-36h182v36h-72v41h72v36zM294 484h-110v-114h182v37h-72v77zM256 447v-40h-36v40h36zM366 340h-182v-36h72v-41h-72v-36h110v77h72v36zM366 274h-36v-72h-146v-38h182v110zM366 140h-110v-61h38v25h36v-52
h-110v88h-36v-124h182v124zM366 -50h-182v-124h182v124zM330 -87v-51h-110v51h110zM366 -200h-182v-36h77l-77 -52v-36h182v36h-112l77 52h35v36z" />
    <glyph glyph-name="space" unicode=" " horiz-adv-x="300" 
 />
    <glyph glyph-name="A" unicode="A" horiz-adv-x="520" 
d="M31 -95q-13 0 -21 12l-3 6q-7 20 -7 41q0 28 13 54q9 16 24 13q10 -3 11 -11v-1q0 -5 -8 -7q-10 -1 -13 -13q-5 -17 -5 -32q0 -13 3 -26q1 -5 6 -6.5t9 2.5q12 12 25 30q22 29 42 63.5t24 41.5l120 207q1 1 4.5 6.5t3.5 13.5q-55 22 -104 19q-13 0 -29 -7q-14 -6 -14 -15
q0 -7 11 -16q1 -1 3 -1.5t3 -2.5q3 -3 1 -6l-5 -3h-2q-15 0 -24 16q-3 6 -3 13q0 10 7 18q9 11 27 18q20 6 39 6q8 0 22 -2q41 -7 68 -13l12 -2q4 0 7 3.5t7 9.5q17 25 19 28l64 98q19 30 40.5 55t61.5 68q11 11 21 16q6 2 8 2q13 0 19 -13q4 -8 4 -18q0 -8 -3 -17
q-7 -40 -13 -64l-6 -25q-30 -126 -40 -190q-16 -96 -16 -182q0 -29 7 -68q5 -33 20 -55q11 -15 21 -15q5 0 11 3q2 1 5 1q5 0 8.5 -4.5t4.5 -10.5v-2q0 -8 -4 -13.5t-10 -6.5h-6q-9 0 -16 4q-32 14 -48 51q-18 48 -18 126q0 53 9 130q0 5 1 10t1 10v2q0 10 -12 10
q-45 1 -108 21q-11 3 -15 3q-5 0 -8 -3t-9 -13l-96 -163q-39 -68 -73 -124q-10 -16 -43 -58q-10 -14 -22 -19q-6 -3 -13 -3zM414 291q14 1 18 4t7 18q27 117 44 194q4 14 6 24.5t3 17.5q2 9 -4 10q-1 1 -3.5 -0.5t-4.5 -3.5l-16 -17q-38 -40 -54 -64q-9 -13 -79 -118
l-14 -21l-9 -14l-1 -4q0 -6 7 -8q32 -9 52 -13.5t41 -4.5h7z" />
    <glyph glyph-name="B" unicode="B" horiz-adv-x="455" 
d="M115.5 -89.5q-14.5 13.5 -14.5 33.5q0 6 1 9q3 16 15 36q13 19 43 53q84 88 169 150q6 3 16 11q16 12 16 23q0 10 -7 21q-15 21 -41 24q-44 3 -85 -17l-23 -13q-2 -1 -7.5 -4t-9.5 -3q-5 0 -10 4q-3 3 -3 7q0 7 14 21q21 18 22 19l16 14q25 21 50 44q46 42 82 98
q31 46 45 101q2 12 2 17q0 11 -8 16q-5 3 -10 3t-11.5 -3.5t-9.5 -4.5q-25 -12 -60 -45q-35 -35 -71 -90q-34 -49 -79 -132q-66 -124 -105 -214q-2 -4 -7.5 -17.5t-13.5 -22.5q-5 -8 -13 -8q-6 0 -10.5 5t-5.5 11q-2 20 -2 30q0 22 3 41q18 160 70 306q6 17 25 76q2 9 8 27
q3 7 7 21q2 6 6.5 9t8.5 1q10 -4 8 -16q-4 -22 -8 -32l-33 -103q-51 -145 -67 -302q10 3 12.5 10t3.5 9q34 74 91 182q39 74 82 138q37 55 76 93q27 27 60 45q21 12 37 12t26.5 -8t13.5 -23q2 -10 2 -15q0 -10 -3 -21q-12 -52 -39 -97q-34 -55 -81 -102l-26 -25
q-1 -2 -5 -5.5t-2 -7.5t6.5 -3.5t5.5 0.5q7 -1 18 -1t18 -1q30 -3 49 -30l9 -17q5 -8 6 -10l2 -24q0 -13 -6 -29q-42 -129 -137 -227q-20 -23 -56 -45q-19 -11 -40 -14q-21 -2 -35.5 11.5zM175 -66q24 14 52 40q37 36 65.5 80.5t54.5 100.5q0 1 1.5 5t-1.5 8h-2
q-5 0 -9 -3.5t-6 -4.5q-92 -68 -165 -153q-6 -6 -28 -36q-7 -10 -9 -24v-3q0 -8 5.5 -13t13.5 -5q10 0 28 8z" />
    <glyph glyph-name="C" unicode="C" horiz-adv-x="427" 
d="M30 37q-30 45 -30 115q0 43 12 94q28 120 84 208q57 89 145 139q32 18 64 26q8 2 22 4q58 4 69 -55q3 -10 3 -23q0 -9 -4 -29q-8 -35 -24 -64q-28 -49 -72 -105l-7 -8q-4 -4 -9.5 -4.5t-7.5 3.5q-1 2 -1 5q0 4 5 9q32 41 57 84q22 34 33 74q5 17 5 31q0 7 -1 11
q-3 45 -40 45q-5 0 -17 -2q-27 -7 -55 -21q-78 -42 -129 -114q-57 -78 -88 -192q-11 -39 -18 -97q-1 -8 -1 -23q0 -45 20 -85q28 -54 96 -56q23 0 51 10q89 31 150 85q45 39 96 98q12 15 20 21q4 2 7 2q5 0 8 -3q7 -6 2 -15q0 -1 -8 -11q-33 -38 -56.5 -63t-49.5 -47
q-70 -61 -161 -92q-31 -11 -61 -11q-25 0 -51 9q-38 15 -58 47z" />
    <glyph glyph-name="D" unicode="D" horiz-adv-x="437" 
d="M121 5.5q-9 7.5 -9 20.5q0 18 13 42q18 31 46 63q76 86 172 145q34 21 50 58q19 47 30 82t15 71q3 23 3 46q0 20 -9 38q-7 15 -21 15q-5 0 -8 -1q-15 -5 -33 -14q-50 -28 -93 -77q-35 -40 -72 -105q-63 -111 -125 -248q-12 -29 -38 -87q-7 -16 -16 -25q-6 -4 -9 -4
q-10 0 -15 11q-2 10 -2 15l1 14q3 75 26 165q11 45 39 135q3 7 10 31l21 61q27 77 39 122q1 7 5.5 11t9.5 3q6 0 8.5 -6t0.5 -15q-3 -18 -13 -47q-10 -32 -16 -48l-21 -64l-7 -22q-22 -66 -35.5 -110.5t-23.5 -89.5q-6 -32 -8 -47l-4 -27q0 -2 1 -3.5t2 -1.5q2 0 3.5 1
t1.5 2q6 11 9.5 19.5t5.5 13.5q47 108 117 237q33 62 76 115q47 58 108 94q23 12 39 16q12 2 17 2q30 0 45 -32q10 -23 10 -50q1 -32 -5 -64t-18 -71q-21 -77 -69.5 -158t-139.5 -175q-27 -27 -56 -46q-20 -13 -36 -15q-13 -3 -22 4.5zM192 58q77 68 142 167q5 7 2 11h-3
q-5 0 -9 -3t-5 -4q-80 -56 -137 -125q-12 -15 -32 -45q-6 -10 -9 -21q-1 -2 -0.5 -3.5t2.5 -2.5q1 -1 2.5 -1.5t2.5 0.5q19 5 44 27z" />
    <glyph glyph-name="E" unicode="E" horiz-adv-x="381" 
d="M79 -69q-32 0 -52.5 15t-24.5 43q-2 16 -2 25q0 19 5 44q5 23 20 89q1 3 1 7q0 3 -2.5 5t-7.5 4q-3 2 -9 4q-3 3 -3 8q0 6 3 7q1 1 4.5 3.5t6.5 2.5q12 2 18.5 10t9.5 22q23 73 71 176l37 76q1 3 4.5 9.5t3.5 13.5q-4 2 -10 2l-14 -1q-12 0 -12 8q0 9 10 12l15 4
q3 1 15.5 3.5t22.5 8.5q4 4 9 4q19 0 39.5 4t26.5 5q24 6 40 8l34 5q62 10 92 11h9q14 0 21 -1q4 -1 7.5 -4.5t3.5 -7.5q0 -5 -4 -9.5t-10 -3.5q-6 0 -14.5 2t-14.5 1l-21 -2q-7 0 -21 -2l-155 -26q-2 0 -6 -1.5t-7 -1.5q-21 -1 -31 -25l-51 -106q-36 -81 -59 -149
q-1 -2 -4.5 -10.5t0.5 -14.5q3 -4 8 -4q3 0 9 2t10 3l140 34q3 1 9 1q11 0 12 -8v-3q0 -10 -15 -15l-16 -3q-15 -3 -26 -7l-126 -31q-21 -5 -25 -23l-25 -112q-2 -11 -2 -35q1 -50 52 -50q22 0 45 6q32 6 63 17q51 19 153 59q6 2 9 2q7 0 10 -7q2 -6 1 -9q-4 -10 -14 -13
l-55 -21q-54 -21 -90.5 -33.5t-74.5 -21.5q-12 -3 -39 -5h-7z" />
    <glyph glyph-name="F" unicode="F" horiz-adv-x="333" 
d="M7.5 -67q-3.5 4 -2.5 11l4 16l36 159l4 16q1 3 1 9q0 5 -3.5 7t-11.5 2q-8 -1 -26 -1q-7 0 -9 8v2q0 9 7 12q9 3 29 5q14 1 21.5 8.5t11.5 21.5q14 63 35 133q16 58 41 120q1 2 4 9t1 13q-3 2 -10 2q-4 0 -16 -2l-25 -6q-62 -14 -67 -15q-10 -3 -23 -3q-2 0 -4 4q0 4 1 6
q4 6 14 8l37 9q13 3 31.5 8t42.5 10q6 1 20 3.5t19 12t11 25.5q3 12 7 19q5 8 14 6q5 -2 7.5 -6.5t1.5 -9.5l-6 -18q-1 -3 -2 -7.5t0 -8.5q4 -3 10 -2.5t9 0.5q114 16 172 22q42 5 130 9q7 1 13 0q7 0 11 -1.5t5 -6.5v-2q0 -4 -4 -7t-11 -4q-28 -2 -43 -2q-96 -5 -250 -25
l-43 -6q-15 -1 -21 -17q-27 -60 -39 -101q-16 -54 -46 -164q-2 -10 -2 -16t6 -6q7 0 10 1l36 6q12 2 32.5 5.5t34.5 6.5q4 1 18 3.5t25 10.5q3 3 7 3t7 -4q4 -4 4 -9q0 -4 -3 -9q-9 -12 -28 -15l-103 -19q-14 -3 -42 -7q-16 -3 -19 -19l-10 -41q-22 -96 -34 -144
q-1 -9 -7 -25q-3 -7 -10 -7t-10.5 4z" />
    <glyph glyph-name="G" unicode="G" horiz-adv-x="565" 
d="M615 206q0 -4 -3 -9l-9 -9l-22 -20q-71 -62 -184 -177q-23 -23 -31 -49q-13 -45 -39 -100q-16 -36 -37 -62q-14 -19 -33 -32q-9 -7 -24 -10q-16 -2 -24.5 5t-8.5 22q0 24 12 42q13 21 29 44q51 67 95 113q17 19 23 42q29 109 64 284q2 8 2 13q0 3 -2 9q-6 0 -9.5 -3
t-6 -7t-4.5 -6l-102 -120q-73 -83 -136 -136q-31 -26 -59 -42q-28 -17 -50 -17q-25 0 -40 23q-16 24 -16 58q0 21 7 49q46 192 156 329q42 52 81 80q36 27 67 33q20 4 29 4q41 0 53 -40q5 -12 5 -30q0 -14 -3 -28q-5 -24 -12 -44q-20 -54 -59 -117q-8 -15 -17 -19
q-2 -1 -9 1q-5 3 -3 9l10 17q27 45 49 99q10 28 15 50q3 12 3 36q-3 40 -33 40q-10 0 -20 -3q-34 -8 -66 -34q-38 -30 -71 -72q-105 -132 -150 -317q-4 -22 -5 -32l-1 -11q0 -5 2 -15q6 -39 30 -39q13 0 29 9q23 12 54 37q67 54 128 126l78 91q25 31 77 91q9 12 19 22
q5 3 8 3q2 0 8 -2q5 -2 5 -11q0 -4 -2 -16l-7 -37q-4 -22 -21.5 -108.5t-35.5 -161.5q-4 -11 -1 -16h3q4 0 11 7q73 76 173 164q8 8 10 9q5 3 9 3q5 0 9 -3q3 -3 3 -9zM317 -93v-1v1zM320 -105q0 6 -4 10q-2 -6 -9 -14t-11 -13q-6 -9 -14 -17l-37 -50q-16 -22 -17 -38
q0 -3 2 -5q3 -3 6 -1q13 6 30 24q30 38 52 97q2 4 2 7z" />
    <glyph glyph-name="H" unicode="H" horiz-adv-x="393" 
d="M208 -134q0 4 1 6q16 38 30 112l4 21q34 168 55 252l4 19q0 8 -8 8q-1 0 -2.5 0.5t-4.5 -0.5q-104 -8 -156 -13q-1 0 -19 -3q-16 -1 -19 -19q-11 -54 -16 -73l-16 -74q-12 -58 -17 -87q-2 -12 -2 -18q0 -9 2 -14q3 -8 3 -14q0 -11 -10 -33q-2 -5 -6 -7t-10 -1
q-10 4 -10 12q0 24 1 36q8 67 28 151l25 118v5q0 10 -13 6q-6 -1 -31 -8q-3 -1 -10 -1q-9 0 -11 10v2q0 6 5 9l30 11q5 2 13.5 3t15 3t10.5 8q6 9 8.5 21t3.5 16q26 105 49 170l11 27q3 4 7.5 5.5t9.5 -0.5q9 -5 6 -14l-7 -21q-24 -67 -52 -176l-3 -13v-3q0 -9 11 -9l10 1
l163 14q15 1 18.5 4.5t7.5 17.5l11 38q31 113 49 163q12 36 34 91q6 17 14 22q3 3 9 3q6 -1 8 -9l1 -4q0 -5 -2.5 -10t-3.5 -8q-35 -83 -65 -185l-27 -98q-1 -4 -1 -9q0 -6 3.5 -8t11.5 0q16 2 48 8l7 1h2q4 0 7.5 -3t4.5 -7v-3q0 -7 -7 -10q-11 -5 -22 -6q-16 -3 -48 -7
q-19 -1 -22 -20q-19 -78 -32 -133q-9 -41 -22 -106l-24 -115q-3 -18 -13 -47q-5 -12 -7 -15q-7 -7 -15 -3q-8 3 -8 13z" />
    <glyph glyph-name="I" unicode="I" horiz-adv-x="300" 
d="M10 -87q-6 0 -10 8v4q0 5 4 8q11 7 20 10q24 7 48 12q10 3 13 13l7 22q9 30 25 90q6 20 21.5 77t31.5 103q38 118 70 212q1 5 3 11.5t4 13.5v2q0 3 -2.5 4.5t-5.5 0.5q-47 -12 -70 -19.5t-45 -25.5q-3 -3 -5 -3h-3q-6 0 -9 4q-5 5 -1 12q4 8 17 15q25 15 56 25
q42 14 63 19q19 3 24 19l3 6q1 1 3.5 5t6 6t7.5 1q9 -1 11 -15q0 -8 9 -6q10 3 40 10q62 16 92 27q4 2 12 4h1q3 0 6 -3.5t3 -7.5v-2q0 -7 -7 -11q-10 -6 -28 -11q-80 -22 -120 -32q-13 -2 -20 -8.5t-11 -19.5q-9 -24 -14 -43q-42 -125 -71 -217t-53 -183l-19 -66
q-1 -4 -1 -10t3.5 -8t12.5 0q56 9 95 24q4 2 11 2t9 -5q2 -4 2 -6q0 -9 -11 -15q-24 -11 -76 -21q-47 -10 -74 -13q-30 -6 -60 -15q-10 -4 -16 -4h-2z" />
    <glyph glyph-name="J" unicode="J" horiz-adv-x="349" 
d="M64 -69q-18 0 -33.5 10t-25.5 28q-5 10 -5 21q0 14 7.5 27t20.5 19q1 1 3 1q3 0 9 -4q6 -6 2 -12l-14 -22l-2 -8q0 -6 3 -10q10 -16 27 -22q6 -2 9 -2t11 2q14 6 32 22q27 26 50 65q38 63 71 157q42 130 63 264l3 25l-2 18q-2 10 -11 8q-33 -4 -52 -7l-51 -8
q-62 -8 -91 -15q-3 -1 -10 -1q-1 0 -5 1t-5 5l-1 4q0 6 8 9q9 4 25 7l54 9l101 15q98 14 206 38q11 2 29 4q8 0 9 -7v-3q0 -6 -5 -8q-13 -7 -25 -8q-20 -5 -49 -10t-45 -8l-47 -9q-9 -2 -12 -3.5t-3 -7.5l1 -9q2 -31 -7 -81q-24 -144 -66 -263q-26 -75 -65 -136
q-22 -35 -41 -55q-14 -14 -29 -26q-22 -14 -42 -14z" />
    <glyph glyph-name="K" unicode="K" horiz-adv-x="554" 
d="M58 -92q-2 6 -2 9q0 5 2 13q8 65 11 91l1 10q0 7 -3.5 10t-13.5 8q-6 3 -27 10q-2 1 -6 2t-9 4q-11 4 -11 14q0 7 8 14q3 3 18 13q24 16 37 22q24 14 27 41q6 52 24 148q15 80 52 209q5 15 10 25q2 5 6.5 7t9.5 0q8 -4 6 -14l-7 -25q-39 -131 -55 -225q-5 -27 -16 -97
q-1 -6 -1 -19q0 -4 3 -5.5t6 0.5l17 10q82 60 136 107q120 104 201 244q26 48 33 75q4 10 12 7q9 -1 9 -12q-1 -14 -11 -38q-28 -63 -66 -116q-84 -120 -186 -201q-87 -71 -144 -108q-19 -13 -22 -35l-4 -51q9 -11 24.5 -19t21.5 -11q31 -17 83 -31q18 -5 33 -5q26 0 53 11
q24 9 58 30q43 29 84 68l117 114q17 17 24 8q3 -4 3 -8q0 -7 -9 -18l-11 -12l-113 -109q-37 -37 -90 -70q-14 -9 -44 -23q-37 -17 -72 -17q-22 0 -49 8q-47 13 -85 34l-23 12q-4 2 -6 2q-6 0 -8 -9l-9 -65q3 -11 3 -18q0 -13 -7 -23q-6 -6 -11 -6q-9 0 -12 10zM70 73
q8 0 9 11l1 9q0 6 -4 10q-10 -3 -11 -4q-2 -1 -8.5 -4.5t-10.5 -12.5q10 -6 15 -7q3 -2 9 -2z" />
    <glyph glyph-name="L" unicode="L" horiz-adv-x="281" 
d="M15 -77q-8 0 -12 6t-2 16l3 13q22 58 66 195q48 148 73 213q34 92 88 197q1 2 4.5 8.5t9.5 9.5q2 2 6 0q4 0 6 -6v-3q0 -7 -3 -13l-24 -50q-34 -69 -60 -141l-19 -57q-48 -138 -66 -198q-18 -56 -22 -68l-18 -53l-8 -25q0 -1 1 -2.5t3 -1.5q2 -2 6 0q46 19 126 32
q16 2 26 4l92 19l36 8q12 3 13 3h1q4 0 7.5 -4t2.5 -9q0 -7 -6 -10q-9 -5 -19 -6q-112 -26 -170 -34q-57 -8 -103 -29q-20 -10 -30 -13q-3 -1 -8 -1z" />
    <glyph glyph-name="M" unicode="M" horiz-adv-x="731" 
d="M17 -111q-12 0 -15 13q-2 10 -2 21.5v14.5q0 47 17 126q18 88 65 229q2 8 11 35l63 200q1 4 5 14.5t9 18.5q4 5 8.5 6.5t8.5 -0.5q10 -6 5 -17q-10 -24 -27 -82l-12 -40q-5 -17 -11.5 -36.5t-13.5 -42.5q-36 -109 -59 -183q-29 -95 -40 -185q-2 -10 -2 -16
q0 -1 -0.5 -5.5t4.5 -4.5q4 0 6 3.5t3 4.5l13 30l28 61q22 50 40 88q60 130 136 231q43 56 85 91l29 21q6 3 18 7q11 2 19 -3.5t10 -16.5q2 -12 2 -17q0 -2 -3 -29q-9 -46 -28 -104q-29 -90 -38 -132q-10 -42 -10 -65q0 -8 4 -11q1 -1 4 -1q5 0 8 5q22 24 31 37q6 8 29.5 39
t46.5 56q16 19 39 40q15 13 32 13q22 0 32 -19q7 -14 10 -31l12 -88q6 -36 14 -53q13 -29 32 -29q14 0 30 13q5 4 42 53q10 15 49 66q2 1 3.5 3t4.5 3q6 4 12 -1q7 -3 5 -10q-2 -8 -9 -18q-86 -116 -109 -128q-18 -8 -30 -8q-21 0 -40 23q-17 22 -21 43q-4 20 -13 74l-8 52
q-2 10 -4 16q-4 12 -13 12q-5 0 -12 -5t-15 -12.5t-12 -11.5q-36 -40 -78 -97q-15 -20 -32 -41q-13 -16 -27 -24q-9 -6 -18 -6q-8 0 -14.5 6.5t-8.5 18.5q-1 5 -1 12t-1 11q2 41 17 96q6 20 26 86l13 43q16 54 20 82q2 7 2 23q0 4 -5 4t-10.5 -3.5t-8.5 -5.5
q-38 -29 -73 -71q-78 -97 -133 -213q-27 -56 -79 -170l-13 -28q-7 -16 -23 -48q-7 -15 -18 -27q-6 -6 -13 -6z" />
    <glyph glyph-name="N" unicode="N" horiz-adv-x="574" 
d="M22 -153q-8 0 -13.5 4.5t-6.5 12.5q-2 12 -2 17q0 14 6 42q27 123 72 244q48 132 111 266l52 113q2 3 5 10.5t9 11.5q7 4 12 0q3 -1 5 -8v-2q0 -9 -8 -23l-70 -154q-92 -200 -137 -361l-26 -105q-1 -5 -2 -13.5t-1 -12.5q0 -1 1 -2.5t3 -1.5q1 -1 2.5 -0.5t2.5 1.5
q14 14 20 22q23 32 37 54l87 146q50 82 78 121q31 42 66 77q23 21 36 28t24 7q24 0 30 -30q3 -18 3 -36l-1 -30q-1 -15 -1 -44q0 -39 4 -70q4 -25 12 -41q8 -15 24 -12q14 1 36 15q11 8 47 48.5t55 64.5q2 4 13 15q5 5 12 -1q3 -1 4.5 -4.5t0.5 -6.5q-4 -10 -7 -14
q-34 -44 -66 -79.5t-47 -45.5q-28 -19 -52 -19q-31 0 -45 31q-6 13 -12 41q-4 28 -4 62q0 26 1 39v56l-3 26q-1 4 -5 6t-8 0q-8 -5 -24 -17q-26 -22 -55 -60q-35 -44 -84 -125l-22 -38l-59 -96q-24 -39 -53 -83q-5 -6 -13.5 -15.5t-14.5 -16.5q-10 -10 -22 -13q-2 -1 -7 -1z
" />
    <glyph glyph-name="O" unicode="O" horiz-adv-x="522" 
d="M52 -60q-26 33 -38 76q-15 56 -14 110q-3 70 28 153q61 163 198 289q25 24 55 35q16 6 25 4q8 -1 10 -11q0 -5 -2 -9t-6 -4q-24 -2 -42 -14.5t-31.5 -26.5t-17.5 -18q-117 -118 -168 -266q-24 -66 -24 -133q0 -48 14 -99q8 -30 24 -57q16 -26 35 -38.5t46 -12.5
q14 0 36 5q27 8 57 26q38 23 69 59q25 29 49 66q58 94 96 200q19 53 24 122q3 34 -13 69q-12 26 -32.5 39.5t-46.5 13.5q-13 0 -33 -5q-24 -6 -42 -24q-30 -30 -47 -55.5t-21 -57.5q-2 -8 -4 -12q-4 -9 -12 -9q-5 1 -8.5 5.5t-2.5 8.5q4 34 13 54q27 55 72 92q36 29 83 29
q60 0 94 -48q31 -47 26 -103q-6 -75 -29 -137q-42 -114 -99 -202q-42 -63 -87 -102q-49 -38 -91 -52q-24 -7 -54 -7q-56 0 -89 47z" />
    <glyph glyph-name="P" unicode="P" horiz-adv-x="479" 
d="M19 -93q-12 0 -17 15q-1 5 -1 13t-1 13q6 75 23 152q47 230 160 476l12 20q3 3 9 1q8 0 8 -9q0 -7 -3 -15q-7 -19 -23 -55q-90 -207 -131 -393q-18 -79 -25 -142q-1 -3 -1 -10t2 -8q3 -2 5 0t3 4q14 24 20 37q56 115 104 201q59 104 112 184q45 66 78 101q32 36 66 58
q21 12 30 15q10 2 15 2q26 0 38 -27q8 -20 7 -32v-21q0 -14 -1 -21q-19 -132 -91 -233q-44 -58 -97 -91q-27 -16 -49 -16q-34 0 -39 32q-2 12 -2 18q0 31 21 55q13 16 42 31q1 1 3 1h4q8 0 10 -5q2 -3 2 -7q0 -5 -4 -8q-16 -12 -24 -17q-26 -17 -28 -56q0 -10 6 -15t16 -3
q13 3 35 17q48 31 78 74q75 102 92 231q1 7 1 20q0 15 -2 23q-4 24 -19 24q-7 0 -18 -6q-9 -4 -27 -18q-24 -18 -55 -53q-42 -47 -83 -113q-90 -139 -177 -314q-32 -64 -49 -95q-11 -20 -21 -29q-6 -6 -14 -6z" />
    <glyph glyph-name="Q" unicode="Q" horiz-adv-x="476" 
d="M75 -25q-33 36 -41 87q-3 23 -3 44t4 61q22 183 127 318q23 28 42 46q18 14 35 18l6 1q3 0 9 -2q5 -2 6 -8t-3 -9l-5 -4q-19 -5 -33 -17.5t-30 -32.5q-88 -111 -116 -243q-16 -73 -16 -125q0 -13 2 -41q6 -42 33 -73q11 -14 30.5 -23t40.5 -9q23 0 42 11q33 20 62 53
q76 89 114 190q45 120 49 218q0 52 -10 86q-12 41 -49 66t-79 25q-28 0 -52 -12q-67 -34 -112 -88q-9 -11 -16 -26t-13 -30l-3.5 -10.5t-6.5 -13.5q-2 -3 -6 -4t-8 1q-7 1 -7 9q0 7 1 10q21 68 62 106q36 33 81 61q36 23 81 23q53 0 97.5 -32.5t56.5 -85.5q11 -51 9 -81
q-18 -249 -162 -420q-35 -42 -73 -65q-27 -18 -59 -18q-51 0 -87 39zM305 -166.5q-11 1.5 -18 3.5q-49 13 -89 34q-24 14 -37 19q-27 12 -52 12q-43 0 -81 -35q-3 -2 -6.5 -5.5t-8.5 -7.5q-2 -1 -9 1q-4 4 -4 8q0 10 13 23q45 42 98 42q22 0 43 -7q22 -7 50 -23
q44 -24 88 -35q17 -5 31 -5q13 0 23 5q1 1 4 1q6 0 9 -6q2 -4 2 -7q0 -5 -3 -8q-6 -8 -13 -9q-1 0 -23 -3q-6 1 -17 2.5z" />
    <glyph glyph-name="R" unicode="R" horiz-adv-x="470" 
d="M1 -97q-1 3 -1 11q0 10 1 15q5 63 24 112q25 67 56 188l21 79q44 159 73 281q1 5 4.5 18t9.5 22q4 8 11 5q6 -2 8 -9l1 -6q0 -8 -4 -20l-19 -73q-30 -114 -44 -171q-2 -6 -5.5 -17t-3.5 -20q0 -3 2 -11q42 78 92 133q35 41 78 69q29 18 50 25q14 5 33 5t31.5 -9t14.5 -26
q2 -14 2 -20q0 -14 -5 -32q-7 -28 -22 -58q-80 -157 -249 -248l-17 -9q-3 -1 -3 -5t3 -5q56 -26 85 -34q16 -5 39 -5q46 0 97 28q14 8 27 18l31 24q47 34 76 61q6 4 9 5l3 1q4 0 7.5 -3.5t2.5 -7.5q0 -7 -3 -12q-10 -12 -16 -16l-32 -25l-72 -55q-24 -17 -61 -31
q-33 -13 -69 -13q-30 0 -59 10l-38 15l-26 10q-4 2 -22.5 9.5t-35.5 10.5q-7 -6 -9 -15t-3 -12l-33 -150q-1 -3 -3.5 -16.5t-9.5 -24.5q-6 -9 -16 -8q-8 3 -11 12zM172 181q79 47 142 119q52 56 82 129q13 31 14 54v6q-1 14 -7 19.5t-20 4.5q-11 0 -23 -5t-14 -6
q-43 -20 -86 -64q-53 -55 -91.5 -123t-71.5 -153v-3q0 -3 2.5 -5t6.5 -1q31 8 66 28z" />
    <glyph glyph-name="S" unicode="S" horiz-adv-x="505" 
d="M155 -114q-17 0 -28 13q-11 14 -11 28q0 10 6 21q7 12 19 26q36 43 87 74l76 45q20 12 23 29q1 6 3.5 14.5t3.5 14.5q6 61 -53 62q-17 0 -32 -3q-31 -6 -93 -20q-45 -9 -63 -9q-34 0 -57 16.5t-31 48.5q-5 19 -5 44q0 28 8 60q7 29 22 65q65 145 189 229q49 32 95 43
q23 5 41 5q25 0 46 -7q29 -10 44.5 -32.5t15.5 -53.5q0 -17 -4 -30q-19 -67 -63 -125q-20 -24 -39 -35q-23 -13 -40 -12q-10 0 -12 9l-1 3q0 5 7 10q1 1 7 3q33 6 62 44q38 53 54 108q4 16 4 26q0 46 -45 61q-14 5 -35 5q-18 0 -33 -4q-43 -10 -78 -33q-160 -103 -213 -288
q-7 -28 -7 -48q0 -87 66 -87q15 0 33 4t26 6l89 19q17 4 38 4q40 0 62 -20.5t22 -57.5q0 -6 -1.5 -11.5t-1.5 -10.5q0 -3 2 -9h4q7 0 14 4.5t9 5.5l133 70q14 6 21 8q1 1 4 1q5 0 8 -5q2 -4 2 -8.5t-3 -6.5q-7 -6 -23 -14l-24 -13q-77 -42 -135 -71q-28 -15 -42 -43
q-25 -55 -70 -106q-32 -34 -63 -52q-15 -9 -20 -10q-9 -4 -20 -4zM182 -77q33 19 63 55t43 75l-50 -30q-45 -27 -79 -67q-13 -15 -16 -24l-1 -4q0 -4 5 -11q6 -8 15 -4q14 6 20 10z" />
    <glyph glyph-name="T" unicode="T" horiz-adv-x="276" 
d="M91 -76q-2 6 -2 8q0 4 2 12l24 145q30 181 77 372q2 7 4 19v3q0 5 -3 7t-8 1q-39 -6 -73 -15q-29 -5 -110 -23l-60 -13q-16 -4 -26 -2q-6 2 -6 7q0 2 1 5t2 4q8 6 28 10l153 33q62 14 93 19q11 2 17 7t7 15q2 14 8 32q1 6 5.5 9.5t8.5 1.5q9 -5 7 -17l-4 -22l-1 -5
q0 -10 18 -9q32 5 46 7l143 14l62 7h23q8 -1 9 -9v-2q0 -7 -7 -11l-13 -3q-97 -8 -143 -14l-81 -9l-46 -6q-20 -1 -25 -24q-53 -222 -85 -420l-19 -116q-2 -16 -8 -21q-4 -4 -9 -4q-7 0 -9 7z" />
    <glyph glyph-name="U" unicode="U" horiz-adv-x="490" 
d="M63 -76q-17 0 -28 14q-17 20 -27 53q-8 28 -8 80q1 94 25 185q42 171 113 306l9 14q6 6 12 3t6 -10q0 -11 -2 -16l-10 -21q-71 -139 -109 -307q-19 -88 -19 -153l1 -26q2 -41 17 -73q10 -22 22 -22q7 0 23 13q18 17 35 38q24 30 54 86q55 103 98 188q3 6 20.5 39t37.5 60
q5 8 13.5 18t13.5 15q7 7 17 10l5 1q12 0 19 -12q7 -13 5 -32q-8 -47 -9 -52q-12 -56 -32 -140q-9 -41 -14 -101q-1 -5 -1 -16q0 -26 9 -45q2 -5 6.5 -6t8.5 3q18 16 25 26q29 40 96 145q14 22 24 31q3 3 8 3q6 0 9 -4q7 -6 2 -14l-33 -49l-78 -118q-18 -25 -34 -40
q-13 -12 -27 -12q-21 0 -32 27q-10 23 -10 58q3 62 16 116q22 96 32 144q3 14 7 42q2 5 -3 7q-5 3 -9 -3t-12 -16t-13 -18l-46 -83l-93 -180q-30 -56 -61 -97q-27 -31 -38 -40q-11 -10 -22 -15q-8 -4 -19 -4z" />
    <glyph glyph-name="V" unicode="V" horiz-adv-x="343" 
d="M56 -60q-18 0 -28 20q-7 16 -12 37q-16 75 -16 162q0 38 14 124q23 127 41 192q5 15 10 25q1 2 3.5 2.5t4.5 -0.5q2 0 4 -2t2 -4q1 -3 1 -9q0 -7 -1 -11.5t-2 -8.5q-23 -89 -46 -244q-6 -37 -6 -75q0 -20 4 -62q5 -56 15 -94q4 -13 7.5 -19t8.5 -6q8 0 21 12q23 17 51 51
q28 37 53 79q63 109 113 210q19 39 34.5 80t36.5 103l15 43q6 12 11 17t12 1q6 -3 6 -10t-3 -13l-15 -43q-11 -28 -17 -50q-24 -73 -58.5 -143.5t-86.5 -163.5q-38 -66 -60 -97q-35 -49 -64 -75q-19 -17 -35 -24q-8 -4 -18 -4z" />
    <glyph glyph-name="W" unicode="W" horiz-adv-x="590" 
d="M70 -98q-23 0 -40 26q-10 16 -17 43q-13 43 -13 100q0 29 3 59q8 99 39.5 194.5t84.5 202.5q12 26 42 63q8 12 17 14q2 1 5 1q5 0 10 -5q3 -5 0 -12q1 2 -10 -13q-25 -31 -37 -54q-76 -148 -106 -274q-16 -62 -21 -145q-1 -10 -1 -31q0 -48 12 -96q8 -26 18 -38
q8 -8 14 -8q5 0 12 5q11 8 24 26q32 45 58 103l19 41q30 70 60 131q16 35 50 103q1 2 6.5 12.5t13.5 17.5q8 6 15 4q10 -3 12 -14v-6q0 -9 -4 -27q-6 -29 -20 -89q-14 -69 -20 -129q-2 -18 -2 -28q0 -24 6 -50q8 -35 28 -55q13 -13 26 -13q10 0 21 7q18 11 38 36
q28 38 53 94q36 86 57 194q13 66 20 152q2 18 2 27q0 15 -5 25q-1 1 -1 4q0 6 7 9q2 1 6 1q5 0 9 -4q8 -8 9 -17q0 -3 0.5 -9t-0.5 -11q-10 -203 -73 -364q-27 -66 -60 -112q-21 -30 -46 -46q-19 -12 -37 -12q-24 0 -45 22q-23 23 -33 63q-7 27 -7 59q0 14 2 42q9 76 21 125
q0 2 1.5 7t1.5 10q0 6 -3 15l-30 -64l-75 -164q-27 -59 -58 -102q-14 -20 -25 -30q-18 -16 -34 -16z" />
    <glyph glyph-name="X" unicode="X" horiz-adv-x="563" 
d="M0 -118q0 7 7 15l20 25q67 81 161 227q12 19 11 43q-3 68 -3 134l3 121q2 78 2 118v11t4 11q1 2 2.5 3t2.5 1q7 0 8 -3q3 -4 5 -12q1 -11 1 -33v-144h-2v-141q0 -20 1 -29q0 -7 4 -8q5 -2 8 3l15 22q112 168 201 282q5 6 25 31t39 44q20 20 32 27q9 6 16 3q4 -2 6 -7
q1 -1 -1 -6q0 -2 -2 -2q-19 -11 -33.5 -26t-36.5 -43q-125 -158 -257 -367q-6 -10 -8.5 -17.5t-1.5 -16.5q15 -103 43 -164q10 -22 24 -46q7 -12 17 -23q16 -17 34 -17q10 0 23 5q22 10 47 35q20 22 54 70q39 57 58.5 90t45.5 85q2 4 11 23q8 17 19 14q8 -3 8 -11
q0 -4 -4 -14l-12 -25q-24 -50 -48.5 -92t-69.5 -104q-22 -32 -47 -58q-26 -26 -53 -38q-19 -7 -31 -7q-28 0 -53 25q-11 11 -27 37q-35 60 -51 137l-8 39q-2 6 -5 7q-1 1 -3 1t-4 -2.5t-3 -3.5l-12 -19q-68 -104 -124 -173q-5 -7 -14 -19t-16 -20q-9 -11 -17 -11q-4 0 -8 4
q-3 4 -3 9z" />
    <glyph glyph-name="Y" unicode="Y" horiz-adv-x="472" 
d="M519 205q-4 -5 -14 -13q-69 -60 -151 -144l-27 -28q-27 -28 -35 -62q-16 -64 -54 -133q-18 -37 -46 -63q-14 -14 -26 -19q-6 -3 -12 -3q-10 0 -17 7.5t-6 19.5q0 5 2 13q4 12 14 36q13 29 42 71q28 38 43 57l16 20q21 23 29 40t41 157l8 35q11 45 27 137l12 65l5 27
q10 57 18 88q-1 0 -4.5 1t-6.5 -3q-5 -7 -13 -23q-34 -65 -73 -129t-95 -151q-41 -63 -81 -94q-25 -22 -47 -29q-13 -5 -22 -5q-26 0 -37 32q-9 29 -9 57q0 16 1 24q7 76 31 157q35 115 98 224q24 41 50 69q16 16 22 6q3 -4 3 -7q0 -4 -3.5 -7.5t-4.5 -5.5q-40 -54 -71 -117
t-59 -139q-33 -90 -40 -181q-1 -7 -1 -21q0 -21 5 -44q5 -20 18 -20q6 0 16 5q18 9 33 21q36 29 71 81q51 78 85.5 133.5t64.5 112.5l17 32q22 43 50 95q2 4 18 28q5 7 15 4q9 -4 9 -13q0 -15 -1 -22q-24 -124 -70 -370l-7 -27q-28 -114 -27 -124q2 -1 5 -1q4 0 6.5 3.5
t4.5 4.5l26 26q56 57 102 97q23 21 37 30q2 1 5 1q5 0 9 -4q7 -8 1 -15zM246 -92q0 6 -4 10l-21 -31q-33 -44 -53 -86q-1 -4 -5 -12q0 -1 -1.5 -5.5t1.5 -6.5q2 -2 3 -2q2 0 4.5 2t3.5 3l9 10q20 22 33.5 48.5t28.5 64.5q1 2 1 5z" />
    <glyph glyph-name="Z" unicode="Z" horiz-adv-x="470" 
d="M20 -89q-11 0 -17 9q-3 6 -3 11q0 8 8 20q29 53 76 106l21 22l42 44l242 249q62 62 98 114q15 20 23 39q3 9 3 15q0 15 -23 21q-7 2 -21 2q-12 0 -18 -1q-155 -22 -258 -77l-12 -6q-2 -1 -6 -1q-6 0 -9 4q-2 4 -2 6q0 5 5 8q9 9 18 14q29 18 68 31q88 32 184 46
q18 2 29 2q21 0 36 -5q36 -12 36 -42q0 -5 -4 -21q-6 -18 -23 -43q-36 -55 -106 -125l-260 -267q-58 -58 -93 -110q-1 -2 -7 -10.5t-9 -21.5q18 2 34.5 9.5t21.5 9.5q90 41 161 71q54 23 113 38.5t136 29.5q7 2 13 0q5 -1 7 -10l1 -3q0 -4 -6 -8q-18 -6 -28 -8l-83 -17
q-71 -15 -173 -59q-40 -17 -120 -53l-31.5 -13.5t-47.5 -16.5q-15 -3 -16 -3z" />
    <glyph glyph-name="a" unicode="a" horiz-adv-x="259" 
d="M5 86q-9 0 -15 6.5t-7 17.5q0 11 1 16q19 75 62 117q5 6 15 13q16 13 33 13q15 0 30 -12q7 -5 9 -5q3 0 9 8q8 9 22 29l13 18l15 21q9 9 18 5q10 -6 5 -20l-13 -27q-27 -53 -40 -100q-10 -36 -10 -54q0 -5 3 -7.5t7 -0.5q18 8 27 13q23 15 37 27q14 11 25 22l24 21
q16 13 17 14q6 5 12 -1q7 -5 4 -15q0 -1 -6 -7q-57 -57 -103 -85q-28 -19 -48 -19q-25 0 -25 29q0 14 4 42q2 11 9 38q-12 -4 -17.5 -11.5t-7.5 -9.5q-41 -49 -70 -74q-15 -13 -27 -19q-6 -3 -12 -3zM23 125q38 32 86 93q2 1 4 5q1 2 1 5q0 6 -5 9q-7 5 -14 5q-2 0 -8 -2
q-9 -3 -16 -10q-47 -41 -59 -106l1 -0.5t1 -1.5q5 -1 9 3z" />
    <glyph glyph-name="b" unicode="b" horiz-adv-x="337" 
d="M-10 -37q0 6 2 20q6 59 20 137l9 57q5 35 25 101q24 82 40 133.5t37 102.5q22 52 34 78q4 9 22 33q6 10 16 6q9 -5 7 -17q-2 -16 -6 -29q-21 -72 -76 -202q-3 -6 -7 -16t-11 -23q-18 -33 -29.5 -69.5t-22.5 -87.5l-4 -23q-7 -25 -8 -46q10 2 13.5 9.5t4.5 9.5
q37 57 84 91q3 2 15.5 10t25.5 11q9 3 17 3q30 0 31 -37q1 -9 -0.5 -22t-2.5 -20q0 -3 -1 -8t2 -8h3q5 0 9 3t5 4q30 19 94 49l22 11q3 2 9 4q2 1 6 1t7 -2t4 -5l1 -4q0 -9 -8 -12q-10 -7 -32 -17q-58 -28 -114 -63q-30 -20 -41 -45q-26 -48 -64 -78q-14 -11 -27 -12h-2
q-9 0 -14.5 7t-3.5 16q3 14 19 34q29 35 64 60q24 17 30 45q10 38 9 58q0 17 -17 12q-15 -5 -32 -17q-58 -43 -90 -110q-22 -45 -46 -119q-5 -16 -6 -19q-4 -7 -14 -5q-8 3 -8 10z" />
    <glyph glyph-name="c" unicode="c" horiz-adv-x="296" 
d="M6.5 61q-18.5 21 -16.5 57q0 6 2 16q22 86 85 141q18 15 37 15q14 0 27 -7q16 -8 18 -25q1 -5 1 -14q0 -32 -21 -56q-2 -3 -8 -5l-2 -1q-2 0 -4.5 2t-2.5 4v2q0 7 6 17q11 20 8 37q-1 9 -6 14.5t-13 5.5q-3 0 -9 -2q-10 -3 -19 -12q-53 -47 -71 -119q-3 -12 -3 -23
q0 -20 12.5 -31t35.5 -11q29 0 69 18q38 15 76 44q21 16 38 29.5t30 24.5l34 27q12 10 18 14q4 2 6 2q6 0 9 -5q3 -3 3 -7q0 -3 -3 -8q-1 -2 -9 -10q-88 -74 -137 -106q-46 -30 -94 -43q-9 -2 -35 -5q-43 -1 -61.5 20z" />
    <glyph glyph-name="d" unicode="d" horiz-adv-x="285" 
d="M335 583q0 -10 -8 -28q-19 -53 -46 -94q-30 -47 -56 -129q-38 -128 -51 -216q-11 -77 -11 -128q0 -21 1 -32q1 -37 11 -77q2 -4 2 -6l1 -6q0 -10 -9 -13q-2 -1 -5 -1q-10 0 -13 14q-12 48 -13 90q-4 108 24 237q4 20 20 80q4 14 2 22v-1q-9 -4 -14.5 -13t-8.5 -13
q-53 -77 -96 -124q-5 -6 -32 -33q-12 -10 -20 -12h-4q-7 0 -12.5 4.5t-6.5 12.5q0 10 3 19q22 71 59 124q15 20 32 32q14 9 23 9q14 0 25 -23q6 2 9 7.5t4 6.5l39 57q43 64 60 116q17 54 45 101q10 21 21 29q4 4 10 4q5 0 8 -2q5 -3 7 -14zM116 250q2 4 8.5 12t7.5 15
q-4 1 -12 1q-14 0 -25 -8t-22 -22q-2 -1 -4 -5q-20 -31 -40 -81l-2 -8q0 -6 3 -11q64 76 86 107z" />
    <glyph glyph-name="e" unicode="e" horiz-adv-x="228" 
d="M14.5 51.5q-13.5 9.5 -18.5 27.5q-7 20 -6 34q-1 18 7 46q19 60 58 97q15 14 28.5 21.5t30.5 7.5q15 0 23.5 -10t6.5 -27q-4 -30 -25 -52q-25 -27 -46 -42.5t-48 -18.5q-6 -1 -8 -9q-1 -4 -1 -12q0 -14 4 -23q6 -28 34 -23q18 4 43 16q39 21 72 51l71 67l19 18q8 7 15 0
t3 -15q-2 -4 -8 -10q-60 -61 -100 -94q-35 -29 -71 -46q-30 -13 -51 -13q-19 0 -32.5 9.5zM108 226q9 14 9 23q-1 10 -9 8q-9 -1 -18 -7q-40 -26 -60 -79q0 -5 2 -5q5 -2 6 -1q51 27 70 61z" />
    <glyph glyph-name="f" unicode="f" horiz-adv-x="211" 
d="M16 -272q-14 0 -24 16q-12 20 -17 49q-6 46 -5 69q4 101 28 210q33 149 105 326q34 85 81 157q17 28 37 46q15 13 26 9q11 -5 11 -19q0 -7 -1 -10q-2 -15 -6 -28q-10 -35 -31 -83q-62 -137 -128 -235l-31 -50q-8 -13 -12 -23q-4 -9 1 -12q5 -2 9 -1q21 6 54 23l108 55
q8 4 24 10l3 1q4 0 7.5 -2.5t4.5 -6.5l1 -4q0 -7 -6 -10l-9 -4.5t-11 -6.5q-76 -38 -114 -58q-24 -12 -54 -23q-14 -3 -25 -9q-6 -4 -5 -11l6 -15q32 -82 32 -167q0 -21 -1 -32q0 -7 -2 -34t-7 -50q-2 -15 -10 -38q-5 -16 -17 -28q-11 -11 -22 -11zM88 264q81 130 134 268
q1 4 5 13t4 16q0 3 -2 9q-8 -2 -12.5 -7t-7.5 -12t-6 -11q-34 -54 -61 -115.5t-54 -139.5q-3 -6 -3 -12q0 -4 3 -9q-1 0 -3 2v-2h3zM18 -240q4 0 6 4q12 16 17 49q8 54 8 103l-1 33q-1 39 -15 87q-2 10 -11 16q-1 -4 -3 -9t-3 -11l-5 -34q-8 -48 -10 -72q-5 -38 -5 -70
q0 -24 3 -48q4 -28 13 -44q2 -4 6 -4z" />
    <glyph glyph-name="g" unicode="g" horiz-adv-x="412" 
d="M58 -354q-15 0 -21 18q-3 10 -3 22q0 9 4 27q11 44 39 94q38 67 91 131q20 24 28 52l8 25q10 38 26 88l38 125q0 1 2.5 7t-0.5 14q-8 -2 -13.5 -8.5t-7.5 -8.5l-30 -27q-11 -10 -35 -31.5t-43 -36.5q-40 -31 -68 -46q-22 -11 -35 -11q-30 0 -36 29q-2 7 -2 21q0 12 4 34
q25 98 115 144q26 12 46 12q10 0 21 -3q37 -9 43 -43q2 -10 2 -13q2 -1 5 -1q4 0 7.5 3.5l4.5 4.5l39 35q4 4 10 4q5 0 8 -2q10 -6 8 -17q-8 -32 -13 -47q-27 -73 -58 -191q0 -1 -2.5 -7t0.5 -12q7 1 12.5 7.5t7.5 8.5q59 62 169 159l15 12q4 2 6 2q6 0 9 -5q3 -3 3 -7
q0 -3 -3 -8l-13 -14l-100 -90q-57 -52 -125 -134q-13 -14 -19 -34l-38 -108q-26 -68 -65 -135q-15 -24 -24 -32q-8 -7 -17 -7zM90 132q31 21 62 48.5t37 32.5q19 16 16 33v17q-1 12 -7.5 18.5t-18.5 9.5q-10 2 -15 2q-13 0 -30 -7q-86 -42 -106 -137q-2 -10 -2 -17l1 -12
q2 -14 12 -14q3 0 9 2q17 7 42 24zM68 -312q1 2 3 3.5t3 4.5q47 76 73 155q2 7 -4 10q-16 -20 -42 -64q-29 -52 -37 -90q-1 -3 -2 -8t-1 -8l4 -4z" />
    <glyph glyph-name="h" unicode="h" horiz-adv-x="333" 
d="M383 208q-2 -9 -14 -21q-17 -16 -53.5 -42.5t-53.5 -33.5q-13 -5 -21 -5q-14 0 -24 9.5t-14 26.5q-5 24 -3 62q0 17 -1 26q0 2 -2.5 3.5t-4.5 -0.5q-8 -5 -12 -10q-22 -24 -44 -62q-33 -52 -66 -124l-23 -43q-6 -13 -16 -21q-7 -5 -12 -5q-11 0 -16 13q-3 12 -3 26
q-2 43 9 114q2 13 8 39l7 38q1 3 3 10.5t2 13.5q0 7 -3 14q-1 1 -1 4q0 4 2.5 8t3.5 6q10 14 17.5 34t9.5 26q43 128 129 270q3 6 27 37q5 5 13 9q1 1 3 1q4 0 7 -2.5t3 -5.5q0 -11 -2 -16q-3 -10 -11 -30q-35 -78 -65.5 -136.5t-65.5 -112.5q-16 -26 -25 -56
q-35 -113 -44 -211q-1 -9 -1 -26q0 -1 2 -13q10 7 14 16.5t6 13.5q36 75 70 129q23 39 44 61q12 14 27 24q6 5 15 5q18 0 21 -20q1 -4 1 -13v-22q0 -7 -0.5 -17t0.5 -23q0 -18 2 -26q3 -17 14 -17q6 0 12 3q17 7 52 33t49 41q5 6 11 11q5 4 12 -1q6 -5 5 -12zM160 482
q0 2 1 3l-3 -8q2 3 2 5zM155 472q-2 -1 -6 -5zM140 448h1v1q7 9 6 16q-2 -12 -7 -17z" />
    <glyph glyph-name="i" unicode="i" horiz-adv-x="186" 
d="M67 291q-6 0 -10 5.5t-5 13.5q0 18 18 18q8 0 13.5 -4.5t6.5 -11.5q0 -8 -6.5 -14.5t-14.5 -6.5h-2zM43 36q-14 0 -24.5 8t-14.5 21q-4 10 -4 36q10 79 29 126q8 18 15 25q7 6 15 1q3 -1 4.5 -4.5t0.5 -6.5l-6 -15q-13 -27 -19.5 -56.5t-12.5 -69.5v-7q0 -7 2 -19
q1 -7 7 -10.5t13 -1.5q10 1 18.5 5.5t19.5 13.5q34 27 74 73l27 32q12 16 19 24q4 5 14 13q5 5 12 -1q6 -4 4 -12q-2 -7 -6 -11q-33 -43 -58.5 -72t-55.5 -54q-18 -16 -33 -25t-30 -12q-4 -1 -10 -1z" />
    <glyph glyph-name="j" unicode="j" horiz-adv-x="177" 
d="M53 329q-7 0 -11 5.5t-4 13.5v2q0 16 17 16q8 0 14 -4.5t6 -11.5q0 -8 -6 -14.5t-14 -6.5h-2zM-179 -325q-8 0 -13.5 5t-6.5 15q-1 6 -1 13v10q1 16 11 44q17 48 42 89q46 81 105 149q13 16 23 39q34 92 52 193q5 26 7 35q2 8 10 8q5 0 8.5 -3t3.5 -7q0 -18 -2 -26
q-9 -56 -28 -128q-1 -2 -4 -11t-1 -20q9 4 16.5 11t10.5 10q26 25 101 84l40 32q9 7 17 10l3 1q7 0 11 -8q4 -7 -1 -12l-10 -9q-28 -21 -82 -65q-61 -48 -118 -108q-18 -20 -29 -47q-17 -45 -53 -133q-12 -30 -40 -86q-6 -12 -32 -54q-10 -16 -24 -26q-8 -5 -16 -5z
M-163 -281q11 15 20 29q40 71 71 154q0 2 2 5.5t-2 6.5q-6 -3 -7 -5q-58 -81 -86 -157q-2 -7 -7 -28q-1 -2 0 -4.5t3 -3.5q4 0 6 3z" />
    <glyph glyph-name="k" unicode="k" horiz-adv-x="326" 
d="M-17 -66q-3 3 -3 8q0 8 2 26l10 64q1 4 1 11q0 9 -2 25q0 6 7 16t8 16q5 26 16 70q0 1 1 6t-3 9q-6 5 -6 12q0 6 5 14q16 24 27 48.5t29 69.5q23 61 71 155q12 24 23 35q9 8 18 2q8 -5 6 -14q-3 -11 -8 -25q-45 -106 -88 -179q-15 -25 -24 -53q-21 -65 -32 -110
q0 -1 -1 -5.5t1 -8.5q7 4 11 11t6 10q27 46 50 73q16 20 35 34q12 8 21 9t15.5 -5t6.5 -15t-4 -17.5t-12 -20.5q-24 -39 -71 -81q2 2 -38 -32q-3 -3 -2 -8t7 -5q7 0 19 1t20 2q101 16 174 78q13 10 37 32l25 22q14 12 18 14q2 1 5 1q4 0 9 -5q5 -7 1 -12q-2 -4 -8 -10
q-25 -23 -51.5 -46.5t-51.5 -40.5q-84 -57 -190 -62h-19t-15.5 -6t-10.5 -27q-7 -20 -19 -60l-6 -22q-3 -9 -13 -7q-4 0 -7 3zM130.5 187.5q27.5 30.5 30.5 44.5q-19 -3 -41 -31.5t-32 -53.5q15 10 42.5 40.5z" />
    <glyph glyph-name="l" unicode="l" horiz-adv-x="194" 
d="M244 209q0 -7 -4 -12q-2 -5 -15 -25q-20 -25 -70 -94l-59 -80q-20 -26 -38 -40q-14 -11 -25 -11q-18 0 -27 26q-4 9 -5 16q-1 13 -1 33q1 61 17 136q3 18 3 19q0 9 -5 15q-2 4 -2 5q0 5 5 10q16 20 28 62q48 150 110 251q7 11 27 41q3 4 18 19q11 9 21 4q11 -5 9 -20
q-4 -20 -8 -28q-7 -18 -23 -54q-60 -119 -119 -211q-14 -22 -21 -44q-25 -89 -33 -180q-2 -20 -2 -30q0 -18 4 -31q2 -6 6.5 -8t8.5 2q22 22 27 29q47 60 142 192q7 12 13 18q4 4 13 1q7 -3 5 -11zM199 529l1 -3v1zM112 368q0 -3 2 -9v0v-1v1h1l58 113l27 54q-4 2 -6 2
q-4 0 -10 -8q-42 -69 -69 -140q-3 -6 -3 -12zM114.5 360q0.5 0 0.5 -1h-1v0v0q0 1 0.5 1z" />
    <glyph glyph-name="m" unicode="m" horiz-adv-x="415" 
d="M-5.5 14.5q-4.5 4.5 -4.5 11.5q0 24 1 35q8 57 26 122q29 102 61 162q2 3 5 9.5t8 9.5t9 1q5 -5 6 -7v-4q0 -6 -3.5 -13.5t-4.5 -10.5q-22 -46 -46 -122q-15 -46 -29 -111q-1 -4 -0.5 -7t-0.5 -6q2 -1 5 -1q4 0 5.5 3.5t2.5 4.5q11 19 13 22l36 63q21 34 46 59
q10 10 20 17q6 3 11 3q13 0 18 -14q6 -13 4 -35q0 -11 -1 -26t-2 -23l1 -23q0 -3 4 -5t6 0l19 18l33 32q10 8 19 12q8 2 10 2q14 0 20 -13q2 -4 4 -9t4 -9q6 -12 10 -17q8 -9 17 -9q3 0 9 2q17 5 34 19q35 29 67 58q2 1 4 5q7 5 11 5q6 0 9 -5q4 -4 4 -9t-5 -10
q-6 -8 -14 -14l-60 -51q-15 -12 -36 -22q-11 -4 -23 -4q-26 0 -42 25q-3 3 -7 13.5t-11 14.5q-13 -7 -26 -21t-20 -20q-7 -9 -16 -17t-19 -12l-8 -2q-10 0 -17 10q-5 11 -6 22q-1 7 -1 23q2 30 2 45q0 3 1 7t1 7q0 9 -7 10h-2q-5 0 -9.5 -6.5t-6.5 -9.5q-18 -22 -44 -65
l-48 -86q-11 -22 -22 -32q-6 -6 -13 -6t-11.5 4.5z" />
    <glyph glyph-name="n" unicode="n" horiz-adv-x="303" 
d="M-5 10q-5 0 -9 3.5t-5 10.5q-1 4 -1 13q2 18 4 25l6 21q7 30 15 55q18 50 56 150q3 7 15 29q3 5 8 6.5t9 -1.5q9 -5 5 -17l-6 -12l-59 -153q-1 -3 -4 -11t-3 -15t2 -11q31 56 78 111q22 24 40 34q7 4 15 4q14 0 23 -16q4 -8 6 -25l5 -49q2 -18 9 -31q5 -11 17 -7
q15 5 33 21l17 16l35 33q14 12 20 18l8 8q7 7 14 0q7 -6 4 -14t-9 -14q-9 -9 -62 -57l-19 -17q-18 -17 -40 -21l-9 -1q-20 0 -32 21q-10 19 -11 37q-4 37 -7 59q-1 6 -5.5 7.5t-8.5 -2.5q-21 -19 -30 -30q-52 -61 -91 -140q-2 -3 -7.5 -15.5t-15.5 -19.5q-4 -3 -10 -3z" />
    <glyph glyph-name="o" unicode="o" horiz-adv-x="196" 
d="M42 50q-18 0 -32 11.5t-18 30.5q-3 14 -2 26q6 62 47 109q13 17 28 22q6 3 13 3q10 -2 11 -10v-4q0 -8 -6 -9q-15 -3 -23 -11t-20 -27q-14 -25 -20 -51q-4 -12 -4 -29t6.5 -26t19.5 -9q8 0 16 5t13 14q12 21 12 36q0 14 -9 29q-4 6 -10 20v3q0 5 3 8t7 4h31q18 -2 56 9
l55 20l16 4q8 0 13 -8q1 -2 1 -5q0 -8 -9 -11l-27 -10q-6 -2 -33.5 -11.5t-54.5 -12.5q-10 -1 -13 -2.5t-3 -6.5q0 -6 1 -11q2 -12 2 -18q0 -19 -9 -39q-10 -22 -30 -35q-14 -8 -28 -8z" />
    <glyph glyph-name="p" unicode="p" horiz-adv-x="368" 
d="M-60 -234q0 21 3 42q24 217 91 418q9 28 31 82l13 34q5 12 15 29q3 6 10 6q12 0 8 -15q0 -2 -2 -6q-69 -168 -113 -375q-1 -5 -4.5 -20t-2.5 -28q8 4 10.5 11t3.5 9q32 78 91 177q35 61 80 103q26 24 41 33q16 9 23 11q9 3 15 3q22 0 30 -27q4 -11 4 -25q0 -10 -1 -17.5
t-2 -12.5v-2q0 -5 3 -6.5t7 0.5q6 2 18 8l70 27q4 2 12 4q6 2 10 2h1q5 0 8.5 -3.5t4.5 -7.5v-2q0 -8 -8 -11q-41 -14 -52 -19q-20 -8 -30 -13l-30 -13q-24 -11 -34 -37q-25 -69 -86 -118q-18 -13 -27 -17q-7 -4 -15 -4q-11 0 -18 7.5t-7 20.5q0 18 11 35q16 26 37 45
q38 36 74 59q22 14 23 37q1 8 3 19t2 19q0 4 -2 14q-4 13 -17 9q-18 -8 -38 -26q-44 -38 -86 -106q-96 -156 -144 -332q-3 -11 -8 -25q-5 -12 -14 -12q-12 0 -12 16zM150 19q57 41 74 88q5 2 2 5q-2 2 -4 -2q-33 -17 -70 -63q-4 -6 -7 -11t-5 -8q-2 -7 1 -9q4 -4 9 0z" />
    <glyph glyph-name="q" unicode="q" horiz-adv-x="317" 
d="M91 -242q-12 0 -22 8t-15 22q-12 34 -12 70q0 15 1 23q4 60 12 97q1 3 1 9q0 10 -10 17q-6 4 -20 15q-6 5 -6 12q0 9 10 12l31 8q14 2 18 12q18 45 37 98q1 1 -1 4q-7 -2 -13 -8.5t-9 -9.5q-27 -25 -43 -34q-14 -9 -24 -9q-8 0 -13 4q-13 9 -13 23q0 4 1.5 9t1.5 7
q24 89 78 141q15 15 36 21q14 3 24 -4.5t10 -20.5v-1q0 -6 -4.5 -9t-7.5 1q-8 8 -16 8q-7 0 -18 -9l-15 -14q-42 -46 -61 -114q0 -5 2 -9q2 -1 5 -0.5t4 1.5q28 21 36 29q55 54 125 147q10 14 16 20q7 7 15 1q8 -5 4 -14q-2 -6 -12 -20q-60 -92 -103 -200l-9 -28l-1 -3
q0 -2 2.5 -4t5.5 -1q8 2 24 8q107 41 183 124q14 16 22 23q5 3 8 3q4 0 7 -3q7 -5 3 -15q-5 -8 -10 -13q-92 -109 -231 -153l-19 -6q-15 -7 -15 -22q0 -8 6 -16q4 -5 8.5 -10t8.5 -10q38 -53 38 -112q0 -25 -8 -55q-6 -22 -22 -36t-31 -14zM112 -200q3 6 7 18q7 21 7 45
q0 28 -10 54q-7 17 -14 29.5t-21 23.5q-12 -53 -12 -100q0 -29 4 -53q0 -4 1 -7l2 -6q1 -2 2.5 -7t4.5 -8t9 -3q10 0 20 14z" />
    <glyph glyph-name="r" unicode="r" horiz-adv-x="244" 
d="M-20 -1q0 4 -0.5 12t0.5 14q13 92 44 160l32 75q2 3 3.5 6.5t4.5 7.5q5 5 12 3q9 -3 7 -10q0 -10 -5 -22q-8 -20 -26 -60q-20 -47 -32 -92q-4 -14 -4 -20t3 -12h-1l1 -1l39 79q22 40 48 65q12 12 23 19q6 3 12 3q12 0 19 -12q3 -5 5.5 -11.5t5.5 -11.5q11 -18 24 -18
q7 0 17 5q28 15 53 38q6 6 13 10q1 1 4 1q4 0 8 -3q6 -6 3 -12q-4 -9 -9 -13q-25 -27 -66 -47q-10 -5 -23 -5q-25 0 -41 22l-15 24q-9 0 -17 -10q-24 -24 -45 -64l-19 -38q-4 -10 -29 -59q-9 -18 -18 -31q-5 -8 -14 -8q-15 0 -17 16z" />
    <glyph glyph-name="s" unicode="s" horiz-adv-x="218" 
d="M-40 -42l1 10q2 16 16 35q25 37 53 58q11 8 14.5 18t3.5 25q-1 36 -12 90q-1 6 -3 21t-2 26q0 57 53 94q15 9 31 9q9 0 13 -1q5 -1 11 -7q3 -3 3 -6t-2 -6t-5 -4q-6 -2 -9 -1q-23 1 -41 -17q-25 -24 -28 -51l-1 -13q0 -7 2 -19q12 -64 16 -107q0 -1 5 -9q9 5 15 9
l145 102l13 8q6 4 12 -2q4 -3 4.5 -7t-2.5 -8q-5 -8 -16 -15l-77 -55l-83 -59q-17 -12 -20 -32q-3 -34 -19 -69q-12 -28 -29 -42q-14 -13 -29 -13q-8 0 -16 5q-17 10 -17 33zM2 -49q14 11 24 32.5t11 45.5q-35 -25 -50 -63q-2 -4 0 -7q0 -5 3 -8q4 -6 12 0z" />
    <glyph glyph-name="t" unicode="t" horiz-adv-x="201" 
d="M18 -71q-16 0 -26 21q-6 14 -6 38q0 25 4 53l5 35q16 98 66 236q5 16 11 30l8 22q3 8 3 13t-4.5 6.5t-14.5 0.5l-81 -10q-4 -1 -10 -2t-15 -1q-7 0 -11 1q-6 2 -7 6v3q0 6 5 8q10 3 28 7q31 4 107 13q18 1 25 17l27 60q18 32 28 48q4 9 10 13.5t11 4.5q4 0 6.5 -3t2.5 -8
q0 -6 -5 -18q-8 -20 -37 -80q-1 -2 -4 -8.5t-3 -15.5q10 -2 13 -2l11 1q47 5 90 8l92 9q12 1 21 0.5t15 -0.5t8 -10q0 -8 -6 -10q-10 -2 -26 -4l-215 -19q-11 -1 -18 -5.5t-11 -14.5q-18 -41 -48 -131.5t-40 -136.5q-10 -40 -15 -100q0 -5 -1 -10t-1 -10q0 -16 11 -25
q10 1 16 6.5t11.5 12t7.5 9.5q31 39 83 113l36 49.5t40 51.5q1 1 6.5 8.5t15.5 11.5q6 2 11 -1q8 -6 3 -15q0 -3 -3 -6q-19 -22 -75 -99q-9 -12 -45 -61.5t-66 -83.5q-10 -14 -28 -22q-8 -4 -16 -4z" />
    <glyph glyph-name="u" unicode="u" horiz-adv-x="329" 
d="M212 77q-25 0 -34 29q-3 11 -3 40l7 51q0 2 1.5 7.5t-3.5 6.5h-2q-4 0 -7 -3.5t-4 -4.5l-28 -28q-39 -39 -67 -57q-18 -12 -28 -16q-6 -2 -10 -2q-8 0 -14.5 5.5t-7.5 14.5q-2 8 -2 13l1 10q8 62 36 111l8 11q6 6 11 6t8 -3q5 -5 5 -9q0 -3 -3 -8l-10 -17
q-21 -39 -29 -90v-4q0 -6 4 -7q1 -1 4 -1q2 0 8 4l31 23q41 34 94 96l28 28q6 6 15 2q4 -1 6 -5t1 -8q-3 -17 -7 -29q-14 -43 -19 -92l-1 -15q0 -33 15 -33q6 0 13 3q22 8 42 25q34 27 72 71q9 10 19 19q2 2 6 1.5t6 -2.5q8 -7 4 -14q-4 -8 -7 -11q-46 -55 -86 -86
q-24 -18 -38 -24q-15 -6 -25 -7q-4 -1 -10 -1z" />
    <glyph glyph-name="v" unicode="v" horiz-adv-x="239" 
d="M29 -6q-19 0 -25 26q-2 9 -3 19.5t-1 14.5q10 119 47 205q2 6 7 10q7 5 12 0q4 -2 6 -7v-3q0 -6 -4 -16q-29 -72 -39 -159q-2 -26 -2 -39v-4q0 -11 6 -13q2 -1 5 -1q5 0 8.5 5t4.5 6q10 10 20 25q37 55 47 94q7 25 22.5 37.5t42.5 15.5q21 2 46 8t34 8q2 0 8 1t11 -1
q7 -5 7 -11q0 -8 -6 -11q-4 -3 -12 -3l-80 -17l-22 -4q-16 -3 -21 -18l-9 -25q-21 -54 -57 -103q-17 -23 -32 -32q-13 -8 -21 -8z" />
    <glyph glyph-name="w" unicode="w" horiz-adv-x="396" 
d="M27 3q-21 0 -30 23q-4 13 -6 28q-1 5 -1 13q0 9 1 13q13 97 57 166q6 11 24 31q8 6 14 7q1 1 4 1q5 0 8 -4q4 -6 1 -12l-6 -8q-14 -13 -24 -29t-20 -39q-25 -54 -32 -110q-1 -6 -1 -17q0 -19 6 -31q2 -3 5 -4t6 0q7 3 13.5 9t11.5 12q40 51 69 103q8 16 13 23q5 9 14 6
q10 -3 10 -15l-4 -26l-1 -14q0 -22 9 -43q11 -24 27 -24q13 0 29 15q8 8 17 31q11 28 15 77q1 9 1 26q2 11 8 13l5 1q7 0 12 -8l7 -10q11 -13 27.5 -20.5t33.5 -7.5q21 0 34 8q9 5 20.5 13t17.5 12q8 6 12 6q5 0 9 -4q3 -3 3 -7q0 -8 -8 -15t-26 -19q-27 -20 -60 -20
q-20 0 -40 7q-18 6 -27 10q-5 -9 -6.5 -19t-2.5 -14q-6 -36 -23 -64q-13 -24 -39 -33q-9 -4 -21 -4q-21 0 -37 19q-13 16 -17 32q-2 13 -9 17q-8 -5 -13 -13.5t-7 -11.5l-16 -21q-20 -26 -22 -28q-13 -15 -24 -21q-10 -6 -21 -6z" />
    <glyph glyph-name="x" unicode="x" horiz-adv-x="294" 
d="M-60 -29q1 6 6 11.5t6 7.5l91 102q5 5 13 15q3 4 11.5 12.5t9.5 16.5q1 9 -6 18t-10 13q-22 40 -29 62q-3 9 -2 16q0 5 8 9q1 1 3 1q6 0 8 -5q4 -6 10 -20q16 -38 32 -61q4 -6 8 -6q3 0 8 5l51 59q2 2 8.5 9t13.5 10q8 2 12 -2q5 -5 2 -12q-8 -10 -13 -15l-58 -71
q-6 -7 -6 -11t6 -12q18 -24 31 -33q15 -12 30 -12q11 0 24 9q19 11 37 32q29 31 67 84q7 10 15 17q4 6 12 0q6 -6 5 -11q-1 -4 -5 -12q-46 -68 -90 -112q-13 -11 -26 -20q-20 -13 -40 -13q-23 0 -45 16q-11 8 -21 20.5t-13 15.5q-4 4 -8 4t-8 -5l-96 -107q-12 -15 -26 -29
q-6 -6 -10 -8q-5 -4 -12 0q-6 4 -4 12z" />
    <glyph glyph-name="y" unicode="y" horiz-adv-x="330" 
d="M379.5 219q0.5 -4 -1.5 -7q-9 -13 -20 -26q-54 -61 -122 -154q-23 -29 -29 -64q-8 -55 -31 -117q-11 -28 -20 -38q-9 -11 -21 -11q-13 0 -21 15q-7 13 -7 27q0 9 3 18q8 22 18 45q17 38 51 88q11 18 14 36q4 37 17 133l9 71q1 3 1 10q0 2 -1 3t-2 1q-3 2 -6 -1l-21 -25
q-40 -51 -77 -80q-11 -9 -35 -25q-12 -7 -24 -8t-20.5 5t-11.5 17q-2 6 -2 19q0 57 26 111q4 8 15 21q7 8 18 3q5 -3 5 -9q0 -5 -3 -8q-13 -17 -19.5 -37t-12.5 -48q-3 -11 -3 -32v-2q0 -12 9 -12q4 0 10 3q10 6 30 20q37 29 68 70q19 23 55 69q2 2 7.5 8.5t12.5 6.5
q14 0 14 -17q0 -8 -1 -12q-12 -102 -19 -153l-6 -58q3 0 7 -2q30 38 32 41q26 35 84 101q5 6 11 11q5 3 8 3q4 0 7 -3q4 -3 4.5 -7zM162 -81v-1v1zM164 -95q0 6 -3 12l-14 -31l-12 -30q-5 -12 1 -15q1 -1 3 -1q4 0 5.5 4.5t2.5 5.5l15 43q2 8 2 12z" />
    <glyph glyph-name="z" unicode="z" horiz-adv-x="321" 
d="M41 -203q-7 0 -12.5 4.5t-7.5 12.5q-1 3 -1 9q0 20 8 39.5t23 42.5q28 43 83 109l8 10q14 17 14 39q0 15 -7 28q-9 17 -29 16q-2 0 -22 -6q-5 -1 -8.5 -3t-6.5 -3q-2 -1 -5 -1q-5 0 -10 5q-7 8 0 15q7 10 17 20q56 65 87 126q6 11 14 33v1q0 4 -2.5 6.5t-5.5 1.5
q-6 -2 -15.5 -5t-15.5 -6q-28 -12 -94 -67q-7 -6 -15 -6q-5 0 -8 4q-2 4 -2 7q0 7 7 13q101 88 151 88q13 0 20 -7.5t7 -20.5q0 -8 -3 -19q-4 -14 -18 -42q-17 -33 -61 -93q-4 -4 -4 -8q0 -5 10 -8q26 -6 40 -39q2 -4 3 -9.5t4 -7.5h2q5 0 9.5 5t7.5 7l136 123q10 10 19 11
q5 2 9 -2q6 -4 4 -12q-1 -7 -6.5 -11.5t-7.5 -5.5l-41 -37q-28 -24 -42 -37l-72 -67q-19 -16 -29 -49q-26 -89 -79 -161q-9 -11 -29 -31q-4 -5 -16 -11q-3 -1 -8 -1zM59 -161q44 49 65 115q-27 -30 -43 -51t-27 -46l-2 -6t-2 -7q0 -4 1 -6q4 -4 8 1z" />
    <glyph glyph-name="a_a" horiz-adv-x="526" 
d="M157 39q-21 0 -29 24q-4 12 -2 33q4 35 16 86q0 2 2 6t0 8h-2q-3 0 -6 -3l-4 -4q-35 -40 -47 -51q-23 -24 -51 -37q-12 -4 -17 -4q-12 0 -19 8t-8 23v6q0 6 2 18q14 58 55 99l16 14q22 15 40 15q19 0 36 -13q6 -3 11 -8q8 0 12 5.5t5 7.5l33 47l9 12q7 7 14 2q8 -6 5 -12
q-1 -3 -12 -25q-46 -87 -61 -167q-5 -22 -5 -40q0 -11 1 -17q1 -5 5.5 -7t8.5 0q14 6 32 22q50 45 89 110q16 29 34 42q20 15 38 15q15 0 30 -9q7 -4 10 -4q4 0 9 8l36 53q7 12 13 16q1 1 4 1q5 0 8.5 -3t3.5 -7q0 -8 -3 -14l-24 -59q-13 -34 -19 -73q-1 -5 -1 -16
q0 -14 4 -26q6 -16 18 -16q9 0 15 5q19 14 30 29q24 30 35 45l13 17l14 17q5 5 10 5t8 -3q4 -3 4 -7q0 -3 -4 -9q-14 -22 -32 -44q-24 -34 -47 -56q-15 -15 -32 -22q-10 -4 -14 -4q-8 0 -20 7q-23 16 -25 46q-2 31 3 51l2 18q-10 -5 -15.5 -12t-7.5 -10q-28 -32 -43 -47
q-12 -12 -23 -19q-10 -7 -19 -7t-20 8q-2 1 -5 5t-8 4q-7 -3 -12.5 -10.5t-8.5 -10.5q-24 -27 -51 -47q-14 -10 -26 -14q-4 -1 -11 -1zM50 139q22 17 40 37.5t44 53.5q1 1 1 2.5t1 2.5q-1 1 -1 2.5t-1 2.5q-15 15 -31 15q-9 0 -21 -7q-3 -2 -19 -15q-35 -35 -49 -89
q-1 -4 -0.5 -7t0.5 -5q0 -4 3 -6.5t7 -1.5q10 3 26 15zM307 134q32 23 69 75q1 1 1 5q0 5 -3 8q-6 7 -15 7q-4 0 -10 -2q-17 -5 -24 -17q-4 -7 -12 -18t-12.5 -20.5t-6.5 -19.5q-2 -9 -1 -14q0 -2 5 -7q8 2 9 3z" />
    <glyph glyph-name="a_n_d" horiz-adv-x="740" 
d="M654 18q-17 40 -17 88q0 57 16 135l18 71q4 14 2 20q-5 -4 -10 -12t-8 -12l-54 -76q-14 -20 -31 -33q-16 -13 -28 -13t-29 13l-24 -18q-24 -18 -43 -18q-31 0 -49 45l-14 37q-4 10 -11 10q-5 0 -10 -4q-11 -8 -35 -34q-21 -26 -46 -67q-5 -9 -17 -25q-6 -10 -15 -7
q-5 1 -7.5 6t-1.5 11l9 35q2 10 4 17h-3q-6 0 -8 -3t-2 -4l-51 -64q-20 -25 -42 -39q-13 -9 -24 -9q-12 0 -19.5 11.5t-7.5 33.5q0 14 3 30t4 21q1 7 4 17.5t3 17.5q-8 -2 -12 -7t-6 -7l-33 -35q-9 -10 -21 -18q-7 -6 -17 -6q-5 0 -11 3q-7 4 -8.5 10.5t-0.5 16.5q0 8 3 15
q15 51 49 89q20 22 41 22q13 0 24 -7q4 -2 6 -2q5 0 9 6l33 54q2 3 5 8.5t8 8.5q4 4 11 1q6 -3 6 -10q-1 -8 -5 -15t-5 -10q-28 -59 -48 -115q-15 -45 -16 -73l-1 -12l1 -13q0 -5 4 -6.5t9 1.5q14 10 21 17q29 34 35 42q66 82 121 177q7 13 15 23q3 4 11 2q8 -5 7 -12
q-2 -7 -4.5 -13t-4.5 -10q-21 -44 -35 -80q-1 -1 -4 -7t0 -13q6 1 10.5 7t6.5 8q22 23 39 35q11 7 21 7q15 0 27 -19q5 -8 14 -33q3 -6 5 -12.5t5 -12.5q9 -16 21 -16q4 0 14 4q20 8 37 30l21 30q28 41 33 47q6 8 22 20q16 13 30 13q11 0 20 -5q6 -3 9 -3q5 0 11 10
q71 109 113 197q3 7 16 29q2 3 6 3t7 -2q5 -2 5 -10l-3 -12l-12 -24q-65 -141 -92 -253q-22 -92 -22 -152q-2 -30 5 -54q3 -9 6 -15t10 -10q6 -4 6 -13q0 -7 -5 -14q-3 -4 -11 -4q-5 0 -8 3q-8 10 -10 15zM554 217q30 26 61 78q1 1 1 5l-4 5q-4 3 -8 3q-5 0 -11 -4
q-42 -29 -55 -77q-1 -3 -0.5 -5t0.5 -4t3 -4t5 -1q6 2 8 4zM38.5 163q3.5 3 4.5 4q38 40 59 69l4 7v3q0 8 -9 10h-3q-10 0 -16 -6q-41 -41 -49 -88q-1 0 0 -0.5t1 -1.5q5 0 8.5 3z" />
    <glyph glyph-name="e_e" horiz-adv-x="422" 
d="M36 42q-16 12 -21 35q-2 8 -3 19t-2 19q6 113 92 189q5 5 23 14q8 3 14 3q10 0 17 -6q9 -6 9 -19q0 -7 -1 -11q-2 -17 -17 -39q-39 -59 -87 -87q-16 -9 -21 -21t-4 -31l3 -24q6 -25 31 -28q3 -1 10 -1q13 0 26 6q22 9 39.5 22t47.5 37q6 5 8 16q4 64 64 119q23 21 46 21
q13 0 19.5 -7t5.5 -20q-1 -10 -11 -28q-13 -21 -31 -41l-58 -57q-4 -3 -4 -7t6 -8q12 -6 25 -6q6 0 10 1q33 10 58 26q51 33 106 80q16 13 19 15q4 2 6 2q5 0 8 -5q5 -7 0 -14q-3 -4 -11 -10q-55 -49 -120 -91q-21 -14 -52 -24q-15 -5 -27 -5q-21 0 -40 14q-8 5 -12 5
q-6 0 -14 -6q-40 -33 -76 -50q-19 -9 -39 -9q-26 0 -42 12zM56.5 187.5q2.5 0.5 3.5 1.5q45 33 71 77q2 4 9 22q0 4 -3 5q-1 1 -5 1q-10 -5 -11 -6q-49 -39 -70 -98l2 -4q1 1 3.5 1.5zM305 235l3 9q0 2 -1.5 4t-4.5 1q-9 -3 -11 -4q-44 -33 -60 -80q-2 -5 4 -9q47 42 70 79z
" />
    <glyph glyph-name="l_l" horiz-adv-x="369" 
d="M246 -64q-9 0 -12 8q0 2 -2 6q-1 10 -5 35q-7 56 -7 76q0 17 1 26q2 18 2 37q0 2 -1 3t-2 1q-3 1 -5 -1l-12 -14q-22 -29 -47 -59q-25 -31 -51 -52q-19 -15 -34 -20q-10 -3 -19 -3q-33 0 -45 35q-4 16 -6 33q-1 9 -1 28q0 26 3 51q1 8 3.5 22.5t2.5 25.5q0 9 -1 14
q0 4 1 6q10 18 20 56q2 6 5.5 18t6.5 20l12 29q12 32 27 63q37 80 76 134q26 34 41 48q11 11 23 15l7 1q18 0 21 -21v-5q0 -10 -4 -24q-10 -35 -32 -75q-70 -131 -158 -236q-16 -20 -19 -40q-12 -66 -11 -115q0 -23 7 -41q6 -18 22 -18q3 0 11 2q13 5 28 18q30 25 51 52
l31 41q55 71 50 65q12 16 19 40q27 90 65 166q25 48 52 82q8 11 28 31q9 9 21 12h2q7 0 12 -4t6 -11v-5q0 -7 -3 -15q-12 -30 -19 -45q-34 -72 -86 -149q-29 -46 -52 -78q-11 -18 -14 -34q-11 -66 -11 -108q0 -30 4 -54q0 -3 1 -12t4.5 -15t9.5 -11q6 -4 2 -14q-3 -8 -9 -16
q-4 -5 -10 -5zM57 265q7 -2 8 -1q7 6 12 14q66 88 117 186q19 39 28 67q2 8 2 12q0 1 -3 4h-3q-8 -6 -12 -10q-22 -22 -49 -65q-51 -80 -89 -181q-1 -3 -3.5 -12t-8.5 -15l2 -1zM337.5 353q24.5 40 44.5 84q1 3 6 11t4 17q-25 -21 -57 -79.5t-37 -89.5q15 17 39.5 57z" />
    <glyph glyph-name="n_T_i" horiz-adv-x="765" 
d="M839 545q0 -7 -7 -11l-13 -3q-97 -8 -143 -14l-81 -9l-46 -6q-20 -1 -25 -24q-53 -222 -85 -420l-19 -116q-2 -16 -8 -21q-4 -4 -9 -4q-7 0 -9 7q-2 6 -2 8q0 4 2 12l24 145q23 137 61 303q-57 -106 -129 -194.5t-128 -100.5l-9 -1q-20 0 -32 21q-10 19 -11 37
q-4 37 -7 59q-1 6 -5.5 7.5t-8.5 -2.5q-21 -19 -30 -30q-52 -61 -91 -140q-2 -3 -7.5 -15.5t-15.5 -19.5q-4 -3 -10 -3q-5 0 -9 3.5t-5 10.5q-1 4 -1 13q2 18 4 25l6 21q7 30 15 55q18 50 56 150q3 7 15 29q3 5 8 6.5t9 -1.5q9 -5 5 -17l-6 -12l-59 -153q-1 -3 -4 -11
t-3 -15t2 -11q31 56 78 111q22 24 40 34q7 4 15 4q14 0 23 -16q4 -8 6 -25l5 -49q2 -18 9 -31q5 -11 17 -7q46 12 102 80t103.5 148.5t62.5 121.5l7 16q-4 2 -8 1q-39 -6 -73 -15q-29 -5 -110 -23l-60 -13q-16 -4 -26 -2q-6 2 -6 7q0 2 1 5t2 4q8 6 28 10l153 33
q62 14 93 19q11 2 17 7t7 15q2 14 8 32q1 6 5.5 9.5t8.5 1.5q9 -5 7 -17l-4 -22l-1 -5q0 -10 18 -9q32 5 46 7l143 14l62 7h23q8 -1 9 -9v-2zM646 291q-6 0 -10 5.5t-5 13.5q0 18 18 18q8 0 13.5 -4.5t6.5 -11.5q0 -8 -6.5 -14.5t-14.5 -6.5h-2zM815 211q-2 -7 -6 -11
q-33 -43 -58.5 -72t-55.5 -54q-18 -16 -33 -25t-30 -12q-4 -1 -10 -1q-14 0 -24.5 8t-14.5 21q-4 10 -4 36q10 79 29 126q8 18 15 25q7 6 15 1q3 -1 4.5 -4.5t0.5 -6.5l-6 -15q-13 -27 -19.5 -56.5t-12.5 -69.5v-7q0 -7 2 -19q1 -7 7 -10.5t13 -1.5q10 1 18.5 5.5t19.5 13.5
q34 28 74 73l27 32q12 16 19 24q4 5 14 13q5 5 12 -1q6 -4 4 -12z" />
    <glyph glyph-name="o_o" horiz-adv-x="420" 
d="M38 48q-15 0 -27 9.5t-17 25.5q-4 11 -4 27q0 59 33 101q10 12 13 27q4 21 18.5 33.5t35.5 12.5q38 0 54 -36q6 -13 8 -39q1 -10 2.5 -13t6.5 -3l12 2q28 6 41 10q53 18 82 39q5 4 11 5h2q5 0 8 -5q5 -5 2 -11l-10 -11q-34 -28 -50 -85q-2 -14 -2 -20q0 -9 1 -13
q4 -16 16 -20q2 -1 5 -1q7 0 17 8q15 14 15 36q0 10 -3 17q-2 5 -6 12.5t-6 12.5q-2 4 -2 6q0 10 11 13l15 3q75 9 123 28q8 3 18 3q6 0 9 -6v-4q0 -6 -4 -10l-6 -3q-8 -3 -27.5 -10t-35.5 -9q-23 -4 -67 -14v-5q0 -4 1.5 -10l2.5 -10q1 -5 1 -15q0 -34 -26 -55
q-15 -12 -31 -12q-20 0 -32.5 16t-12.5 42q0 17 6 35l12 38l-63 -17q-7 -1 -19 -2.5t-19 -5.5q-7 -5 -10.5 -17t-6.5 -18q-20 -40 -51 -63q-13 -10 -26 -15q-12 -4 -18 -4zM127 201l1 8q0 23 -9 35q-10 16 -28 16q-16 0 -25 -12q-6 -6 -3 -11q2 -3 7 -14t12.5 -17t17.5 -7
q4 0 9 -1.5t9 -2.5q6 0 9 6zM71 89q28 23 45 63q3 8 3 11q0 5 -11 9q-34 11 -53 22q-5 3 -8 3q-5 0 -9 -7q-21 -31 -24 -76q0 -10 1 -15q5 -25 23 -25q8 0 16 4q9 4 17 11z" />
    <glyph glyph-name="r_r" horiz-adv-x="504" 
d="M-19 -41l-1 9q0 4 2 12q10 60 17 89q35 128 81 228q8 16 13 24q5 7 14 3q8 -5 5 -13q-2 -6 -4.5 -11.5t-4.5 -10.5q-51 -109 -85 -245l-2 -13q9 2 11.5 8.5t3.5 8.5q34 76 69 127q13 20 33 44q6 8 18 16q5 4 13 4q6 0 11.5 -4t7.5 -11q6 -12 8 -38q0 -18 6 -36
q4 -12 15 -12q6 0 10 3q16 8 30 19q20 15 36 33t37 44q15 17 18 20t6 3q5 0 8 -3q2 -1 3 -4t0 -6q-1 -2 -9 -19q-24 -43 -43 -107q-1 -1 1 -6q6 1 10 7.5t6 8.5q18 23 36 37q18 13 33 13q11 0 23 -6q11 -7 24 -7q17 0 32 12l48 37l17 13q1 1 4 1q6 0 9 -4q5 -5 1 -14l-6 -6
q-19 -16 -57 -46q-25 -18 -47 -18q-18 0 -35 10q-6 3 -12 3q-9 0 -19 -7q-16 -12 -31 -32q-25 -32 -51 -83q-8 -16 -13 -23q-5 -5 -11 -4q-9 3 -9 11v4q0 5 1 8q5 39 23 100q1 3 3.5 10t-0.5 14h-2q-4 0 -7 -2.5t-4 -3.5q-20 -16 -31 -23q-16 -11 -34 -11q-31 0 -40 43
q-2 11 -2.5 19.5t-0.5 13.5q-2 10 -4 14q-1 2 -3.5 3t-4.5 -1q-11 -7 -22 -24q-37 -54 -67 -115q-23 -52 -43 -91q-5 -11 -16 -25q-2 -4 -6.5 -5.5t-9.5 0.5q-10 3 -10 13z" />
    <glyph glyph-name="s_s" horiz-adv-x="387" 
d="M437 213q0 -6 -4 -9l-24 -18q-60 -42 -114 -90l-36 -33q-14 -14 -15 -32q-1 -10 -5 -22.5t-6 -18.5q-4 -15 -16 -28q-6 -7 -14 -12q-10 -4 -14 -4q-9 0 -15 6q-7 7 -7 17q0 5 1 8q4 14 14 29q35 45 32 41q4 5 7 10.5t3 11.5l3 132q-2 1 -5 1q-5 0 -7 -4l-89 -108
q-7 -9 -9.5 -16t-0.5 -17q1 -6 1 -15t1 -15q3 -50 -27 -101q-12 -21 -29 -31q-6 -4 -16 -7q-23 -5 -31 18q-5 12 -5 23q0 5 2 15q6 30 23 56q13 22 43 66q7 10 7 19q0 4 -2 12q-11 32 -29 66q-8 16 -10 19q-2 4 -6 11t-6 13q-10 21 -10 48t11 51t32 40q4 4 18 11q7 3 16 3
q16 0 28.5 -10.5t13.5 -27.5q4 -36 -20 -75l-4 -4q-2 0 -4 -0.5t-5 0.5q-2 0 -2 5l-1 5q0 3 4 13q9 21 10 38q0 12 -1 18q-2 7 -9.5 11t-14.5 2q-10 -5 -11 -6q-17 -11 -27 -32.5t-10 -43.5q0 -12 3 -23t9 -22q31 -56 44 -90q1 -3 5 -7q6 1 10 6.5t6 7.5l92 113q26 29 39 57
q9 18 34 43q5 5 12 7l3 1q4 0 7.5 -4.5t2.5 -8.5q-1 -7 -6 -13q-5 -7 -14 -20t-16 -22q-16 -20 -21 -49q-5 -27 -6 -60t-1 -64q0 -6 4 -7q3 -1 8 2l36 30l56 45q17 14 53 40l13 8q3 2 7 2q5 0 9 -4q2 -2 2 -7zM94.5 27q0.5 5 -3.5 7q-1 1 -3 1q-3 0 -5 -4t-3 -5
q-17 -25 -33 -54q-7 -12 -11 -34q-1 -3 -1 -10q0 -14 6 -14h2q8 0 18 12q32 43 33 86v8q0 2 0.5 7zM209 -17q0 1 -1 2l-1 1q-4 0 -4 -3l1 -2v1h1q4 -2 4 1zM205 -16l-1 -2l-1 1v0z" />
    <glyph glyph-name="t_h" horiz-adv-x="589" 
d="M64 -76q-23 0 -35 24q-9 19 -13 53q-1 13 -1 38q0 43 4 76q11 134 58 281q7 25 7 29q0 8 -13 8l-22 -2l-30 -2q-1 0 -9 -1t-13 -7q-3 -4 -8 -3t-6 1q-1 1 -7 2.5t-6 8.5v1q0 6 12 10q14 4 32 5.5t24 2.5q9 0 25 2q7 1 19 1.5t15.5 8.5t8.5 23q12 33 26.5 67t28.5 61
l18 28q5 7 13 7t10 -5q1 -2 1 -9l-3 -5q-20 -28 -34 -60t-30 -76l-9 -23q-2 -6 -2 -7q0 -8 13 -8q10 1 24 2t33 1l179 5q5 0 18 0.5t18 8.5t12 21l28 49q4 8 11 15q3 4 8 5t8 -1q8 -6 4 -17q-5 -13 -7 -16l-24 -46q-3 -4 -4 -7.5t2 -8.5q14 -1 32.5 0.5t26.5 1.5
q61 4 175 10h8q8 0 22 -2q3 0 5 -3t2 -6q0 -5 -3 -8.5t-7 -2.5q-10 1 -30 1q-23 0 -71 -4q-11 0 -35 -2l-49 -3q-25 -2 -75 -4q-12 0 -19.5 -5t-13.5 -16q-17 -31 -33 -68q-43 -91 -67 -206q-5 -23 -9 -69l-1 -6q0 -6 5 -7h1q3 0 8 7l23 36l50 75q11 15 26 30q10 10 19 15
q6 3 12 3q14 0 18 -13q3 -6 4.5 -14.5t2.5 -11.5q1 -6 0.5 -12t0.5 -12q0 -13 2 -18q4 -24 19 -24q8 0 17 4q21 8 42 29l53 54q2 1 6 5t9 5q7 0 11 -4q4 -6 1 -11q-1 -4 -5 -8l-67 -66q-24 -22 -48 -29q-11 -4 -22 -4q-26 0 -37 33q-4 10 -4.5 23.5t-0.5 18.5v5q0 15 -6 17
q-1 1 -4 1q-6 0 -10.5 -6t-6.5 -8q-18 -20 -52 -74l-39 -61q-7 -12 -19 -20q-5 -4 -11 -4q-13 0 -18 14q-3 11 -3 23q-1 47 15 114l13 50q2 6 2 10q0 6 -4 10q-85 -148 -138 -226q-30 -43 -53 -66q-15 -17 -30 -25q-11 -7 -24 -7zM109 -19q35 40 58 78q142 232 212 348
q3 5 12 25v2q0 6 -6 7h-12h-118v-2q-78 -2 -117 -4h-13q-10 0 -13 -10q-4 -11 -5 -14q-54 -166 -66 -313q-2 -38 -2 -56q0 -23 1 -35q0 -23 9 -44q6 -15 16 -15q5 0 15 7q15 12 29 26z" />
    <glyph glyph-name="t_h_e" horiz-adv-x="718" 
d="M768 208q-4 -10 -7 -13l-16 -18q-32 -37 -57 -61.5t-55 -44.5q-24 -16 -38 -18q-5 -1 -14 -1q-27 0 -45 17l-11 11l-43 -35q-19 -14 -34 -19q-4 -2 -12 -4q-12 -2 -15 -2q-17 0 -26.5 10.5t-11.5 30.5q-1 17 1 51q0 14 -1 21q-2 7 -7 3q-7 -3 -11 -9q-5 -6 -15.5 -19.5
t-16.5 -25.5l-34 -59l-24 -44l-26 -44q-11 -15 -22 -21q-6 -3 -11 -3q-12 0 -17 15q-2 12 -2 19l1 20q5 88 37 193q9 32 28 83q-1 0 -1 1v1v-2q-4 2 -8 -2q-14 -20 -16 -22l-114 -168q-28 -42 -56 -72q-17 -17 -26 -24q-10 -7 -20 -7q-18 0 -27 21q-5 13 -7 32q-1 9 -1 28
q0 39 11 99q8 38 32 106.5t45 119.5l7 20q0 6 -5 6q-18 0 -27 -2q-44 -6 -66 -10l-33 -5h-6q-6 2 -5 6q0 6 3 7q4 2 12 4q41 8 68 11q36 6 54 7q17 1 25 18q14 29 44 87q5 9 15 23q5 7 13 2t5 -13q-2 -6 -8 -16l-40 -78q-2 -4 -2 -9q0 -7 11 -6l184 22q14 1 21 14l45 72
q1 2 14 20q9 12 17 6q6 -3 6 -9q0 -4 -3 -10l-12 -20q-21 -32 -31 -56l-1 -3q0 -3 2 -5t6 -1l75 7l181 15q5 1 15 1t15 -1q6 0 9.5 -3t3.5 -7q-1 -7 -12 -7q-20 -2 -60 -4q-76 -5 -226 -19q-13 -2 -20.5 -6.5t-12.5 -15.5q-42 -90 -79.5 -195.5t-49.5 -181.5q-5 -25 -5 -47
q0 -12 1 -18q7 -4 10 4q19 30 33 58q34 63 58 99q8 12 30 38q9 10 22 16q3 1 9 1q16 0 20 -15q4 -9 4 -22l-1 -26q-2 -18 -2 -27q0 -12 1 -18q3 -19 21 -15q14 3 30 13q11 8 20 15t16 13q25 18 26 48q1 50 39 94q17 19 31 22q8 2 11 2q12 0 18 -8.5t4 -22.5q-2 -19 -19 -47
q-17 -29 -42 -55l-12 -14q-6 -6 0 -13q10 -15 31 -15q19 0 37 12q28 21 46 36t33 34q5 7 32 36l16 18q6 6 10 7h3q5 0 8 -4q3 -6 2 -8zM154.5 141.5q37.5 59.5 50.5 80.5q63 103 106 166q1 1 4.5 5.5t1.5 10.5q-3 2 -7 2h-5q-31 -4 -93 -10q-56 -8 -84 -11q-13 0 -18 -12
q-1 -2 -2 -5t-3 -6q-23 -53 -50 -130t-36 -122q-11 -58 -8 -102q2 -20 6 -29q2 -4 5.5 -5.5t6.5 0.5l14 12q28 28 48 58q26 38 63.5 97.5zM550 163.5q-3 -8.5 -2 -17.5q7 1 11 5t7 9.5t6 9.5q16 19 23 42q2 4 2 8q-1 1 -1 2t-1 1t-2.5 0.5t-2.5 -0.5q-19 -13 -33 -43
q-4 -8 -7 -16.5z" />
    <glyph glyph-name="t_t" horiz-adv-x="383" 
d="M10 -71q-16 0 -24 17q-4 9 -4 27q-2 34 9 87q29 152 83 291q2 5 5.5 13.5t3.5 12.5t-3 5t-10 1q-26 0 -52 -3q-28 -2 -40 -2h-3q-8 0 -12.5 3t-2.5 7q1 6 5 7t12 1q16 2 25 2q38 5 74 6q12 1 18 6t11 16q5 12 36 76l9 19q10 17 19 31q4 5 10 7h3q5 0 8 -4q3 -6 2 -8
t-9 -16q-22 -39 -53 -108q-2 -6 -2 -7q0 -8 11 -6l69 3q87 4 127 5q23 2 32 19q6 12 27 47q8 13 10 15q5 7 14 3q8 -5 5 -13l-16 -36q-2 -3 -7 -11t-3 -17q18 -2 26 -2q11 0 25 1t21 2q68 6 102 10l51 5q17 0 24 -1q3 0 5 -3t2 -6q0 -7 -6 -10l-9 -2l-36 -3
q-124 -12 -187 -15l-18 -1h-3q-14 0 -22 -17q-34 -73 -57 -138t-34 -130q-10 -61 -11 -115q0 -10 6 -19q3 -6 3 -13q0 -10 -4.5 -18.5t-11.5 -13.5q-2 -1 -5 -1q-8 0 -11 5q-5 8 -3 21q4 78 8 115q6 79 41 179l3 9t1 12q-7 -1 -9.5 -7t-3.5 -7q-58 -90 -127 -184
q-16 -23 -34.5 -48t-35.5 -43q-16 -19 -38 -39q-12 -12 -28 -17q-8 -2 -11 -2zM54 -14q23 23 61 75q51 68 98.5 139t116.5 179l4 8l1 4q0 6 -7 6l-29 -1q-20 0 -58 -2q-50 -2 -76 -4l-36 -2q-13 0 -19 -12l-4 -11q-59 -146 -88 -289q-5 -22 -8.5 -44.5t-3.5 -42.5
q0 -4 -0.5 -9t0.5 -12q2 -12 9 -12q2 0 10 4q15 12 29 26z" />
    <glyph glyph-name="zero" unicode="0" horiz-adv-x="160" 
d="M48 86q-11 0 -15 11q0 2 -3 19q-1 18 3 52q9 102 44 187q3 5 8.5 16t11.5 19q10 14 18 19h-1q11 7 16 7q4 0 9 -3q2 -1 4 -4t1 -6q-1 -4 -4.5 -7t-7.5 -1t-5 2q-2 0 -7 -6l-1 -1q-8 -9 -18 -26q-14 -27 -25 -63q-22 -76 -23 -127l-1 -20q-2 -22 -2 -32q-1 -12 2 -14h1
q3 0 5.5 4t5.5 9q14 22 25 49t14 35q17 47 28 94q8 29 9 54q0 3 -2 13q0 5 -5 0l-4 -4l-5 -5h-3q-6 0 -8 4.5t1 9.5v-1q6 16 26 21q7 0 12 -4q7 -7 6 -17q2 -10 2 -16q0 -5 -2 -17q-16 -102 -65 -202q-12 -21 -15 -26v-1l-12 -14q-8 -8 -18 -8z" />
    <glyph glyph-name="one" unicode="1" horiz-adv-x="176" 
d="M176 437v-6q-1 -12 -10 -26q-9 -17 -18 -51l-34 -121l-18 -71q-5 -20 -11.5 -41.5t-15.5 -37.5q-1 -2 -0.5 -3.5t3.5 -1.5q11 0 15 5q8 5 13 1q2 -2 2 -6q0 -3 -1.5 -5.5t-1.5 -3.5q-7 -9 -18 -9l-10 -1l-11 1q-7 -2 -21 -2q-7 0 -9 9q0 3 4 7h1q14 9 20 21t12 33l42 155
l14 50v-1v4l-24 -26l-1 -1q-1 0 -5.5 -3.5t-9.5 1.5q-2 2 -2 4q0 3 2.5 6t2.5 4q16 15 39 52.5t27 49.5v-1q1 8 6 14v-1q4 7 10 7q8 0 8 -5z" />
    <glyph glyph-name="two" unicode="2" horiz-adv-x="254" 
d="M48 57q-4 -2 -7 -2q-5 0 -9 4v1q-2 4 -2 7q0 5 5 12v-1q7 11 21 13q7 1 12 4.5t11 12.5q70 99 115 184q19 33 36 84q5 17 5 30q0 7 -1 11q-1 8 -7 8l-8 -2l1 1l-11 -6q-58 -38 -65 -105l-1 -9q0 -9 7 -13l-1 1q5 -2 5 -6q0 -5 -6 -8q-2 -2 -8 -2q-11 3 -13 14v1
q-2 16 -1 24q9 71 69 114q15 10 23 13q8 2 11 2q17 0 23 -17q2 -8 2 -13q0 -10 -5 -33q-13 -53 -44 -107q-52 -92 -104 -167q-3 -4 -5 -6.5t-3 -4.5q-4 -6 -3.5 -7t6.5 -2q28 -8 43 -11q6 -1 10.5 -0.5t7.5 0.5q21 0 33 17l4 4l4 4q4 4 10 4q4 -1 4.5 -5t-1.5 -8
q-9 -22 -33 -32q-15 -6 -29 -6q-4 0 -14 2q-13 4 -22 5q-5 1 -13.5 3t-19.5 6h1l-6 1q-4 0 -7 -4q-9 -6 -20 -11v1z" />
    <glyph glyph-name="three" unicode="3" horiz-adv-x="196" 
d="M66 63q-18 0 -29 17q-7 12 -7 22q0 8 3 15q13 39 49 58q6 3 10 3q11 0 15 -13q0 -5 -4 -9q-2 -2 -5 -2.5t-5 1.5q-1 1 -4 1q-5 0 -11 -6q-24 -21 -25 -40l-1 -7q0 -5 3 -10h-1q6 -9 16 -9q7 0 14 4q14 8 23 21q32 41 39 85q2 8 2 22t-2 19t-4.5 8.5t-6.5 3.5t-11 -3
q-3 0 -9 -4q-6 -3 -9 -3q-4 0 -7 5l-2 4q0 3 2 6.5t3 5.5l21 32q35 57 50 102q5 13 5 23q-2 7 -8 4l1 1q-12 -6 -16 -10v-1q-22 -18 -32.5 -34.5t-11.5 -34.5v-1l-1 -5q-4 -4 -6 -5q-1 -1 -3 -1q-4 0 -8 4l-1 9q0 3 2 11q15 48 62 80h1q6 3 7 4q8 3 14 3q20 0 18 -24
q0 -15 -8 -34q-20 -52 -46 -93q-4 -6 -10 -18l-1 -1q-1 -1 0 -1q29 3 35 -30q2 -16 2 -23q0 -20 -6 -40q-10 -37 -35 -71q-13 -21 -35 -33q-12 -8 -26 -8z" />
    <glyph glyph-name="four" unicode="4" horiz-adv-x="167" 
d="M139 246q-3 -11 -14 -47v-3q3 0 8.5 1.5t11.5 1.5l10 2q6 0 5 -8v-1q0 -8 -7 -10t-8 -2l-20 -5q-8 0 -12 -11q-7 -33 -15 -56q-1 -8 -4.5 -17t-4.5 -14q-1 -4 -5 -6t-7 0q-4 2 -4 6q0 5 2 11q16 58 19 68v-1q0 2 2 10q0 4 -2 4l-19 -3q-19 -3 -32 -2q-8 0 -11.5 5.5
t0.5 12.5l8 19q29 53 55 143l17 68v1q1 2 2.5 7.5t5.5 9.5l1 1q4 2 9 1q2 0 2 -2q3 -5 2 -7v-1l-12 -43q-9 -39 -21 -74q-16 -54 -43 -107q-2 -4 -4.5 -7.5t-2.5 -6.5q0 -2 3 -2q4 0 16 3q8 2 26 4q8 1 11 11q14 48 22 72q3 7 7 21l14 37q2 11 14 11q3 -4 3 -9t-2.5 -10.5
t-3.5 -7.5q-6 -15 -22 -68zM132 430v1v-1z" />
    <glyph glyph-name="five" unicode="5" horiz-adv-x="247" 
d="M53 75q-12 0 -18 7.5t-5 19.5v4q0 4 2 10q11 26 25 43q10 10 18 4q3 -1 3 -5q0 -5 -6 -10q-6 -6 -17 -26v1q-5 -12 -5 -22q0 -5 6 -5t17 4q8 5 19 17q31 34 47 84q4 16 2 35q-3 21 -19 21q-6 0 -13 -3q-15 -4 -31 -17q-7 -5 -12 -2q-3 2 -3.5 5t2.5 7l-1 -1q9 19 18 42.5
t13 32.5l14 35q8 20 14 37v0.5t-1 -0.5l-16 -6l-5 -1q-3 0 -5 2t-1 5q0 4 2.5 7.5t5.5 4.5q21 11 40 12q68 9 85 13q5 1 8 0.5t5 -0.5t4 -1t2 -3q0 -9 -8 -11q-3 -1 -11 -3t-15 -3q-49 -8 -57 -9q-12 -2 -16 -13q-3 -10 -8 -22l-9 -22l-27 -67q-2 -5 -1.5 -5.5t4.5 1.5h1
q13 4 28 4q25 -2 31 -24q3 -9 3 -18q0 -11 -3 -26q-12 -59 -56 -106q-16 -18 -37 -25q-8 -2 -13 -2z" />
    <glyph glyph-name="six" unicode="6" horiz-adv-x="195" 
d="M195 390q0 -8 -4 -15q-6 -4 -8 -4q-5 -2 -8 3v4q0 5 1 9q0 3 -4 5h-2l-7 -3h1q-11 -10 -20 -23q-30 -47 -46 -81q-29 -65 -46 -140q-2 -16 -2 -20l1 -10q1 -7 6 -1q7 5 14 15q11 18 20 49v-1l1 11l-1 5q-3 0 -5 -4q-1 0 -2.5 -1.5l-3.5 -3.5q-2 -1 -7 -1q-7 1 -7 10l2 6
q9 15 26 15q15 0 18 -18l0.5 -2t-0.5 -4q-4 -43 -35 -84q-10 -10 -17 -13q-6 -3 -12 -3q-12 0 -16 13q-2 10 -2 14q0 6 1 9q1 10 5 30q25 117 92 216q13 22 27 33q10 7 20 7q6 0 10 -3q10 -7 10 -19z" />
    <glyph glyph-name="seven" unicode="7" horiz-adv-x="206" 
d="M154 320q-1 -4 -1 -5.5t5 -2.5q4 0 6 -2q6 -3 2 -10t-8 -2l-1 -3h-4q-7 0 -11 -4t-8 -14q-30 -67 -62 -159q-10 -25 -17 -46q-1 -2 -2.5 -6t-4.5 -8q-6 -8 -14 -5q-3 2 -3 7q-2 4 1 8l60 158l22 50l4 13q1 1 0.5 1h-0.5h-16q-2 -1 -6 -1q-6 0 -10 7q4 12 11 11.5t8 -0.5
q11 1 17 2.5t9 7.5l8 16q13 26 37 80q3 5 3 7v1q2 3 -2 2l-64 -9q-4 -2 -10 -2q-5 0 -9 4h1q-3 2 -3 4q0 4 6.5 7.5t15.5 5.5q33 3 78 13l5 1q9 0 9 -10q0 -5 -2 -8l-43 -95l-1 -1z" />
    <glyph glyph-name="eight" unicode="8" horiz-adv-x="175" 
d="M175 375q-1 -3 -2.5 -11t-5.5 -14q-20 -38 -27 -49q-22 -32 -23 -65q-1 -28 -11 -60q-4 -23 -18 -48q-10 -17 -21 -25q-9 -6 -18 -6q-14 0 -17 15q-2 10 -2 15q0 10 3 17q10 28 30 64q9 17 17 29.5t13 21.5q10 19 9 31q-1 17 -1 53q0 20 10 42q6 12 15 18q5 4 11 4
q7 0 12 -6h-1q4 -2 4 -5q4 4 7 5q4 0 10 -3q8 -9 6 -23zM154 374q0 6 -3 13q-6 -8 -14 -4q-6 3 -9 -4q-2 -4 -5 -16q-2 -20 -2 -28l1 -26q18 27 31 57q1 2 1 8zM121 308v0.5t1 0.5h-1v-1zM94 208q3 11 3 20l-12 -20l-17 -34l-11 -21q-7 -17 -7 -28q1 -6 3 -6q4 -1 8 4
q7 7 13 19q16 35 20 66z" />
    <glyph glyph-name="nine" unicode="9" horiz-adv-x="169" 
d="M169 449q1 -3 -1 -6q-3 -8 -8 -24.5t-11 -28.5q-34 -89 -62 -197l-19 -65q-8 -28 -13 -63v1q0 -12 -9 -18h1q-6 -3 -8 -3q-3 0 -5.5 2.5t-1.5 5.5v-1q0 5 2 15l21 90l33 111q9 31 19 60l1 4l-3 -5l-12 -16q-3 -4 -7 -10t-10 -13q-15 -15 -18 -17q-6 -5 -15 -5
q-6 0 -9.5 4t-3.5 11q0 2 1 9.5t4 13.5h-1q13 40 36 75q4 7 16 19h1q9 6 15 6t13 -4q5 -6 7 -6q5 6 10 16.5t8 15.5l12 22q2 4 6 5.5t7 -0.5q3 -1 4 -4zM106 374v1q-2 7 -6 9q-4 -1 -10 -8l-3 -3q-23 -36 -36 -78v1q0 -1 -0.5 -2t0.5 -2l1 -2q30 30 53 75h1q2 3 0 9z" />
    <glyph glyph-name="fraction" unicode="&#x2044;" horiz-adv-x="263" 
d="M42 -72q-5 0 -8.5 3.5t-3.5 7.5q0 5 5 20l32 94q50 144 87 260q16 50 52 150q8 20 22 60q4 12 10 24.5t13 21.5q4 5 9 3q3 -1 3 -8q0 -6 -3 -12q-41 -129 -101 -308l-97 -285q-6 -16 -10 -24q-3 -7 -9 -7h-1z" />
    <glyph glyph-name="asterisk" unicode="*" horiz-adv-x="120" 
d="M120 606.5q0 -3.5 -3 -5.5q-2 -4 -9 -4l-22 7h-0.5t-0.5 -1q0 -14 -1 -21v-1q0 -5 -6 -7q-5 -3 -10 2l-2 12q-11 -8 -21 -22v1q-2 -4 -6 -5t-6 1q-6 4 -1 12h-1q5 8 12 14.5t10 9.5h-1l8 9v1h-1l-18 6q-6 0 -6 5t3.5 7t4.5 4h3h3q4 0 7.5 -1.5t6.5 0.5q1 0 1 2v6q0 5 1 8
t3.5 4.5l2.5 1.5q1 1 3 1q6 0 8 -5q1 -3 1 -8t1 -8q5 3 10 7.5t11 8.5q2 1 4 1h3q4 -1 4.5 -4.5t-1.5 -6.5q0 -3 -2 -3l-2 -3l-7.5 -5t-4.5 -6q1 -2 5 -2.5t8 -2.5l5 -3q3 -3 3 -6.5z" />
    <glyph glyph-name="backslash" unicode="\" horiz-adv-x="161" 
d="M151 -57q-10 0 -13 7q-7 12 -8 21q-4 22 -7 33q-39 194 -55 314q-9 61 -21 124l-13 76q-1 3 -3 13t0 19q2 8 10 7q7 -2 8 -9q8 -42 13 -64q13 -63 36 -202l8 -49q8 -53 30 -159q11 -50 14 -68l6 -24q4 -16 5 -24v-3q0 -8 -6 -11q-1 -1 -4 -1z" />
    <glyph glyph-name="periodcentered" unicode="&#xb7;" 
 />
    <glyph glyph-name="bullet" unicode="&#x2022;" 
 />
    <glyph glyph-name="colon" unicode=":" horiz-adv-x="79" 
d="M53 301q3 12 14 12q5 0 8.5 -3t3.5 -7q0 -6 -5 -10.5t-12 -4.5q-11 0 -9 13zM40 188q-6 0 -8.5 4.5t-0.5 10.5q5 11 15 9q6 -3 6 -10q0 -5 -3.5 -9.5t-7.5 -4.5h-1z" />
    <glyph glyph-name="comma" unicode="," horiz-adv-x="81" 
d="M36 33q-4 0 -5.5 3t0.5 9q0 1 2 3l-1 -1q3 3 5 4.5t3 2.5q7 8 10 15l1 1q2 2 0 6q-5 7 -5 12q0 10 12 17q6 3 10 3q6 0 10 -4t3 -10v-1q0 -3 -1 -5v-1q-9 -27 -27 -46q-3 -4 -10 -6q-4 -2 -7 -2z" />
    <glyph glyph-name="ellipsis" unicode="&#x2026;" 
 />
    <glyph glyph-name="exclam" unicode="!" horiz-adv-x="158" 
d="M44 135.5q-2 2.5 -1 6.5l3 11q15 30 32 85q4 9 10 29q6 21 17 72q10 38 24 80l6 14q3 7 8 10.5t10 2.5q8 -5 4 -16q-15 -51 -20 -66q-19 -50 -40 -143l-11 -44q-4 -17 -7 -23q-1 -5 -5.5 -8t-8.5 -2l-1 1l-2 1q-1 0 -1 -2t-3 -7q-4 -4 -9 -4q-3 0 -5 2.5zM30 61q2 8 3 10
q5 9 11 10h3q7 0 8 -3q3 -3 3 -8q0 -4 -3 -9q-4 -8 -15 -9q-10 3 -10 9z" />
    <glyph glyph-name="exclamdown" unicode="&#xa1;" 
 />
    <glyph glyph-name="numbersign" unicode="#" horiz-adv-x="258" 
d="M258 281q0 -2 -1.5 -4.5t-3.5 -2.5q-9 -5 -20 -7q-22 -4 -34 -7q-5 -2 -8 -7q-4 -10 -7 -23q-1 -4 -0.5 -5.5t5.5 -0.5l43 7h1l1.5 0.5t3.5 -0.5t5 -4q-2 -8 -4 -10v1q-6 -7 -17 -7h1l-41 -6q-7 -1 -10 -8l-12 -32v1q0 -4 -4 -6t-5 -2h-2q-4 0 -5.5 3.5t0.5 7.5l9 27
q1 5 -3 5l-38 -6q-3 0 -4.5 -3t-2.5 -7q-12 -33 -17 -55v-1q-1 -2 -2.5 -7.5t-5.5 -10.5q-4 -3 -9 -3q-4 0 -7 5q1 9 7 27l15 49v-1q1 3 -3 3q-12 -1 -21.5 -3t-16.5 -3l-10 -1q-4 0 -5 9l1 5l18 6l36 6q6 1 8 2.5t4 6.5l2 14q0 11 -9 11q-10 0 -26 -4q-18 -4 -28 -3
q2 16 15 19l34 5q4 1 13 1q9 2 11 4t5 10t6.5 19.5t8.5 24.5q4 10 7 15q1 3 3 4.5l2 1.5q2 1 5 1t5 -2t1 -6q-1 -9 -7 -23t-9 -23l-1 -5v-1q-3 -9 -3 -13q0 -2 2 -2l10 2q9 3 30 5h-1q7 1 10 9q9 30 21 60l-1 -1l12 39v-1q2 6 4 9q4 4 9 4q3 0 5 -2.5t1 -5.5v-1
q-4 -11 -10 -33l-9 -28l-13 -39q-1 -4 3 -3h1q11 1 20 3t15 3h-1q4 1 12 1l4 -3l1 -2zM171 254h-1q-7 0 -21 -2q-20 -4 -24 -7.5t-9 -22.5q-1 -5 -0.5 -6.5t5.5 -0.5q6 1 17.5 2t19 8.5t13.5 25.5q1 3 0 3z" />
    <glyph glyph-name="period" unicode="." horiz-adv-x="57" 
d="M30 61q0 8 4.5 12t10.5 4q5 0 8.5 -3t3.5 -7q0 -6 -5 -10.5t-12 -4.5q-10 0 -10 9z" />
    <glyph glyph-name="question" unicode="?" horiz-adv-x="210" 
d="M210 461q0 -2 -3 -14q-2 -6 -5 -11.5t-5 -10.5q-13 -23 -22 -42q-53 -98 -82 -173q-22 -60 -28 -92l-2 -12q0 -7 8 -11q0 -8 -5 -11q-4 -4 -10 -4q-12 2 -12 17l4 30q7 34 21 69t16 41q27 68 82 168l18 34l5 13l1 2q-1 -1 -1.5 -0.5t-1.5 -0.5l-6 -3h1q-80 -53 -113 -131
q-7 -21 -6 -33q-2 -13 -11 -11q-7 2 -8 9q2 17 6 30q14 42 49 84q24 30 64 59q8 7 17 11q12 6 16 6q3 0 8 -3q5 -4 5 -10zM59 55q3 -3 2 -6q-1 -2 -3.5 -10t-10.5 -13q-3 -3 -10 -1l-4 2l-1 1q-2 4 -2 6q0 7 5 14q7 12 17 10h-1q5 0 8 -3z" />
    <glyph glyph-name="questiondown" unicode="&#xbf;" 
 />
    <glyph glyph-name="quotedbl" unicode="&#x22;" horiz-adv-x="103" 
d="M72 616q-3 -15 -7 -24t-11 -13l-13 -7h-2q-3 0 -6 1.5l-3 1.5v4q0 5 3 8q10 6 13 12q4 6 4 7.5t-4 3.5q-3 3 -3 7v2q0 8 8 13h-1q5 4 13 2l1 -1q11 -6 8 -17zM102 616q-3 -15 -7 -24t-11 -13l-13 -7h-2q-3 0 -6 1.5l-3 1.5v4q0 5 3 8q10 6 13 12q4 6 4 7.5t-4 3.5
q-3 3 -3 7v2q0 8 8 13h-1q5 4 13 2l1 -1q11 -6 8 -17zM30 575v-1v1zM60 575v-1v1z" />
    <glyph glyph-name="quotesingle" unicode="'" horiz-adv-x="73" 
d="M72 616q-3 -15 -7 -24t-11 -13l-13 -7h-2q-3 0 -6 1.5l-3 1.5v4q0 5 3 8q10 6 13 12q4 6 4 7.5t-4 3.5q-3 3 -3 7v2q0 8 8 13h-1q5 4 13 2l1 -1q11 -6 8 -17zM30 575v-1v1z" />
    <glyph glyph-name="semicolon" unicode=";" horiz-adv-x="84" 
d="M60 318v1q0 5 4.5 9t9.5 4q10 0 10 -11v-1q0 -5 -4 -9t-9 -4h-1q-8 1 -10 11zM31 174q-1 1 -1 4q0 4 3 10v-1q6 14 3 21v-1q-3 3 -1 8q1 11 13 14h1q8 0 12 -9q1 -4 0 -10q-2 -6 -4.5 -13t-6.5 -15v1q-2 -7 -8.5 -10.5t-9.5 0.5z" />
    <glyph glyph-name="slash" unicode="/" horiz-adv-x="263" 
d="M42 -72q-5 0 -8.5 3.5t-3.5 7.5q0 5 5 20l32 94q50 144 87 260q16 50 52 150q8 20 22 60q4 12 10 24.5t13 21.5q4 5 9 3q3 -1 3 -8q0 -6 -3 -12q-41 -129 -101 -308l-97 -285q-6 -16 -10 -24q-3 -7 -9 -7h-1z" />
    <glyph glyph-name="underscore" unicode="_" horiz-adv-x="228" 
d="M31 -10l-1 2q0 3 3 6t6 3l18 3h1h40l57 1q16 1 32 1t28 1q5 0 8 -1q5 -2 5 -6q0 -3 -2 -6t-5 -4q-9 -3 -13 -3q-18 -1 -84 -1l-84 -1h-3q-5 2 -6 5z" />
    <glyph glyph-name="braceleft" unicode="{" horiz-adv-x="314" 
d="M313 596q-2 -8 -13 -5q-10 5 -16 5q-10 0 -22 -16q-14 -22 -20 -41l-26 -67q-3 -8 -26 -67q-23 -60 -48 -112q-22 -46 -49 -68q-4 -3 -3 -5q6 -11 6 -30q0 -17 -3 -34q-1 -15 -9 -47l-31 -157q-3 -14 -3 -31q0 -11 4.5 -15.5t16.5 -4.5q19 1 44 8h3q6 0 8 -5v-2
q0 -7 -8 -10v-1q-27 -8 -49 -8l-16 1q-13 1 -20 18q-4 13 -2 25l6 40l17 83q10 52 16 78q7 28 7 55q0 11 -1 15q-1 9 -4 11t-13 1l-12 1q-3 3 -3 7l1 6q10 8 17 8q16 0 32 18q16 16 31 46q18 39 39 91l44 110q10 28 16 42q5 13 18 39q9 17 21 26q11 10 27 10q13 0 21 -7
q5 -5 2 -11z" />
    <glyph glyph-name="braceright" unicode="}" horiz-adv-x="286" 
d="M219.5 327.5q-7.5 -23.5 -10.5 -43.5q-2 -10 -2 -15q0 -25 20 -39q8 -6 12 -10h-1q4 -3 4 -8q0 -3 -2 -7t-6 -5q-22 -13 -33.5 -32.5t-20.5 -50.5q-14 -48 -19 -88q-6 -35 -18 -68q-2 -7 -4.5 -12.5t-4.5 -10.5q-23 -51 -85 -70q-2 -1 -7 -1h1h-2q-5 0 -8 3.5t-3 8.5
q0 3 3 8q11 17 30 25q6 0 9 -4q1 -2 0.5 -4.5l-0.5 -2.5q-3 -5 -5 -6q28 11 45 40q9 16 16 38q10 31 19 78q7 40 16 71q10 31 22.5 52t31.5 38l-8 7q-20 18 -20 43q0 4 2 16q4 25 12 51.5t9 31.5q20 54 29 81q17 58 26 109q2 14 2 20q0 12 -3 24q-2 8 -5 13q-4 4 -6 4
q-3 0 -15 -5q-2 -2 -6 -2t-6 3q-1 2 -1 5q0 8 6 11q10 6 20 6q17 0 27 -16q6 -12 6 -33q0 -26 -7 -59q-20 -86 -49 -162q-3 -9 -10.5 -32.5z" />
    <glyph glyph-name="bracketleft" unicode="[" horiz-adv-x="320" 
d="M42 -74q-12 0 -12 12q0 4 2 12q1 0 2 5q0 5 2 10.5t3 9.5q8 26 11 39q4 13 19 65q22 87 29 116q7 31 23 93q36 129 70 208l15 35q10 17 15 22q15 22 35 22q3 0 13 -2q9 -3 47 -18q4 -1 4.5 -5.5t-2.5 -7.5q-7 -4 -11 -1l-35 11q-13 5 -19 5q-7 0 -13 -5.5t-13 -19.5
q-17 -26 -35 -78q-47 -138 -73 -249l-9 -39q-24 -98 -38 -148q-12 -36 -17 -54q-2 -5 -4 -13q-1 -2 0 -3t3 0q2 0 19 6q52 17 98 26q10 2 15 2q3 0 5.5 -2t1.5 -5q-2 -7 -6 -9q-9 -4 -20 -6q-33 -5 -99 -27l1 1q-10 -5 -15 -6q-10 -2 -12 -2z" />
    <glyph glyph-name="bracketright" unicode="]" horiz-adv-x="300" 
d="M36 -45q-6 4 -6 10q0 9 10 13q5 3 26 11h2q5 0 7 -4v-2q0 -5 -3 -8q-4 -4 -7 -5l-5 -3q0 -1 6 -2l16 -4q6 0 8.5 1t3.5 5q6 14 16 42q20 70 26 96l49 175q33 118 91 252l4 9l-1 -1q1 2 0 2l-1 -1q-82 -29 -117 -46l-16 -9l-4 -4.5t-8 -4.5t-7 5q-1 2 -1 5q0 8 15 14
q24 14 39 21q41 16 97 37q3 2 5 2t3 1h1h2q6 0 10 -3.5t3 -9.5q-2 -6 -3.5 -11t-3.5 -11q-43 -97 -71 -184q-18 -56 -27 -94l-29 -102q-4 -18 -7 -27l-31 -113q-6 -22 -15 -41q-9 -26 -29 -26q-3 0 -11 2q-27 6 -37 13z" />
    <glyph glyph-name="parenleft" unicode="(" horiz-adv-x="203" 
d="M200.5 528.5q2.5 -2.5 2.5 -4t-1 -3.5q-1 -4 -4 -7q-30 -41 -51 -96q-43 -102 -61 -166q-16 -55 -23 -107q-12 -68 -13 -122l-1 -13q0 -7 3 -15l1 -5q0 -6 -3 -12l-2.5 -3.5t-6.5 -4.5h-3q-4 0 -6.5 2.5t-1.5 6.5q0 44 1 68q5 60 13 102q18 110 74 244q18 44 28 66
q17 35 35 60v1l12 11q4 0 4 1z" />
    <glyph glyph-name="parenright" unicode=")" horiz-adv-x="192" 
d="M38 -41q-10 0 -8 10l1 1l4 16q6 18 20 54q8 23 15 42.5t13 36.5q17 51 40 132l21 85q20 76 23 137q1 13 3 29.5t3 25.5q0 4 2.5 8.5t7.5 4.5h-1h2q8 0 8 -5.5v-6.5q0 -2 -1 -3l-3 -34q-3 -54 -10 -87q-10 -52 -35 -147q-10 -40 -26 -94q-8 -27 -19.5 -59t-15.5 -44
q-3 -8 -6 -15.5t-5 -13.5l-15 -45l-9 -21q-1 -3 -3.5 -4.5t-1.5 -1.5z" />
    <glyph glyph-name="emdash" unicode="&#x2014;" horiz-adv-x="168" 
d="M31 244l-1 2q0 2 3.5 5.5t6.5 3.5h-1l19 3h1h39l57 3q6 0 8 -1q7 -2 5 -8q0 -6 -7 -8q-9 -3 -12 -3l-109 -2h-3q-5 4 -6 5z" />
    <glyph glyph-name="endash" unicode="&#x2013;" horiz-adv-x="168" 
d="M31 244l-1 2q0 2 3.5 5.5t6.5 3.5h-1l19 3h1h39l57 3q6 0 8 -1q7 -2 5 -8q0 -6 -7 -8q-9 -3 -12 -3l-109 -2h-3q-5 4 -6 5z" />
    <glyph glyph-name="hyphen" unicode="-" horiz-adv-x="168" 
d="M31 244l-1 2q0 2 3.5 5.5t6.5 3.5h-1l19 3h1h39l57 3q6 0 8 -1q7 -2 5 -8q0 -6 -7 -8q-9 -3 -12 -3l-109 -2h-3q-5 4 -6 5z" />
    <glyph glyph-name="guillemotleft" unicode="&#xab;" horiz-adv-x="231" 
d="M150.5 177q5.5 -2 8.5 -6.5t0 -13.5q-4 -2 -10 -2q-7 0 -12 4t-7 5l-46 28l-38 22q-8 4 -12 7q-4 4 -4 9q0 6 6 12q2 2 5 4t4 3q58 40 114 92l5 5t9 5h1h4q3 -1 3 -6v-2q0 -4 -2.5 -7t-3.5 -4v-1q-20 -16 -30 -25q-20 -17 -19 -16q-23 -22 -67 -53q-3 -2 -3 -3.5t2 -2.5
q23 -12 81 -48l4 -2q2 -2 7.5 -4zM231 343q0 -4 -2.5 -7t-3.5 -4v-1q-20 -16 -30 -25q-20 -17 -19 -16q-23 -22 -67 -53q-3 -2 -3 -3.5t2 -2.5q23 -12 81 -48l4 -2q2 -2 7.5 -4t8.5 -6.5t0 -13.5q-4 -2 -10 -2q-7 0 -12 4t-7 5l-46 28l-38 22q-8 4 -12 7q-4 4 -4 9q0 6 6 12
q2 2 5 4t4 3q58 40 114 92l5 5t9 5h1h4q3 -1 3 -6v-2z" />
    <glyph glyph-name="guillemotright" unicode="&#xbb;" horiz-adv-x="231" 
d="M170 255q-3 -2 -4 -3q-58 -40 -114 -92l-5 -5t-9 -5h-1h-4q-3 2 -3 6q0 5 2.5 8.5t3.5 4.5l1 1l24 21q8 6 24 20q20 19 67 53q3 2 3.5 3.5t-1.5 2.5q-32 18 -58 34q-8 4 -24 14l-4 2q-2 2 -7.5 4t-8.5 6.5t0 13.5q4 2 10 2q7 0 12 -4t7 -5q25 -15 29 -17q15 -10 17 -11
l38 -22q8 -4 12 -7q4 -4 4 -9q0 -6 -6 -12q-2 -2 -5 -4zM231 271q0 -6 -6 -12q-2 -2 -5 -4t-4 -3q-58 -40 -114 -92l-5 -5t-9 -5h-1h-4q-3 2 -3 6q0 5 2.5 8.5t3.5 4.5l1 1l24 21q8 6 24 20q20 19 67 53q3 2 3.5 3.5t-1.5 2.5q-32 18 -58 34q-8 4 -24 14l-4 2q-2 2 -7.5 4
t-8.5 6.5t0 13.5q4 2 10 2q7 0 12 -4t7 -5q25 -15 29 -17q15 -10 17 -11l38 -22q8 -4 12 -7q4 -4 4 -9z" />
    <glyph glyph-name="guilsinglleft" unicode="&#x2039;" horiz-adv-x="181" 
d="M181 343q0 -4 -2.5 -7t-3.5 -4v-1q-20 -16 -30 -25q-20 -17 -19 -16q-23 -22 -67 -53q-3 -2 -3 -3.5t2 -2.5q23 -12 81 -48l4 -2q2 -2 7.5 -4t8.5 -6.5t0 -13.5q-4 -2 -10 -2q-7 0 -12 4t-7 5l-46 28l-38 22q-8 4 -12 7q-4 4 -4 9q0 6 6 12q2 2 5 4t4 3q58 40 114 92l5 5
t9 5h1h4q3 -1 3 -6v-2z" />
    <glyph glyph-name="guilsinglright" unicode="&#x203a;" horiz-adv-x="181" 
d="M181 271q0 -6 -6 -12q-2 -2 -5 -4t-4 -3q-58 -40 -114 -92l-5 -5t-9 -5h-1h-4q-3 2 -3 6q0 5 2.5 8.5t3.5 4.5l1 1l24 21q8 6 24 20q20 19 67 53q3 2 3.5 3.5t-1.5 2.5q-32 18 -58 34q-8 4 -24 14l-4 2q-2 2 -7.5 4t-8.5 6.5t0 13.5q4 2 10 2q7 0 12 -4t7 -5
q25 -15 29 -17q15 -10 17 -11l38 -22q8 -4 12 -7q4 -4 4 -9z" />
    <glyph glyph-name="quotedblbase" unicode="&#x201e;" horiz-adv-x="81" 
d="M68 108q6 0 10 -4t3 -10v-1q0 -3 -1 -5v-1q-9 -27 -27 -46q-3 -4 -10 -6q-4 -2 -7 -2q-4 0 -5.5 3t0.5 9q0 1 2 3l-1 -1q3 3 5 4.5t3 2.5q7 8 10 15l1 1q2 2 0 6q-5 7 -5 12q0 10 12 17q6 3 10 3z" />
    <glyph glyph-name="quotedblleft" unicode="&#x201c;" horiz-adv-x="103" 
d="M72 616q-3 -15 -7 -24t-11 -13l-13 -7h-2q-3 0 -6 1.5l-3 1.5v4q0 5 3 8q10 6 13 12q4 6 4 7.5t-4 3.5q-3 3 -3 7v2q0 8 8 13h-1q5 4 13 2l1 -1q11 -6 8 -17zM102 616q-3 -15 -7 -24t-11 -13l-13 -7h-2q-3 0 -6 1.5l-3 1.5v4q0 5 3 8q10 6 13 12q4 6 4 7.5t-4 3.5
q-3 3 -3 7v2q0 8 8 13h-1q5 4 13 2l1 -1q11 -6 8 -17zM30 575v-1v1zM60 575v-1v1z" />
    <glyph glyph-name="quotedblright" unicode="&#x201d;" horiz-adv-x="103" 
d="M72 616q-3 -15 -7 -24t-11 -13l-13 -7h-2q-3 0 -6 1.5l-3 1.5v4q0 5 3 8q10 6 13 12q4 6 4 7.5t-4 3.5q-3 3 -3 7v2q0 8 8 13h-1q5 4 13 2l1 -1q11 -6 8 -17zM102 616q-3 -15 -7 -24t-11 -13l-13 -7h-2q-3 0 -6 1.5l-3 1.5v4q0 5 3 8q10 6 13 12q4 6 4 7.5t-4 3.5
q-3 3 -3 7v2q0 8 8 13h-1q5 4 13 2l1 -1q11 -6 8 -17zM30 575v-1v1zM60 575v-1v1z" />
    <glyph glyph-name="quoteleft" unicode="&#x2018;" horiz-adv-x="73" 
d="M72 616q-3 -15 -7 -24t-11 -13l-13 -7h-2q-3 0 -6 1.5l-3 1.5v4q0 5 3 8q10 6 13 12q4 6 4 7.5t-4 3.5q-3 3 -3 7v2q0 8 8 13h-1q5 4 13 2l1 -1q11 -6 8 -17zM30 575v-1v1z" />
    <glyph glyph-name="quoteright" unicode="&#x2019;" horiz-adv-x="73" 
d="M72 616q-3 -15 -7 -24t-11 -13l-13 -7h-2q-3 0 -6 1.5l-3 1.5v4q0 5 3 8q10 6 13 12q4 6 4 7.5t-4 3.5q-3 3 -3 7v2q0 8 8 13h-1q5 4 13 2l1 -1q11 -6 8 -17zM30 575v-1v1z" />
    <glyph glyph-name="quotesinglbase" unicode="&#x201a;" horiz-adv-x="81" 
d="M36 33q-4 0 -5.5 3t0.5 9q0 1 2 3l-1 -1q3 3 5 4.5t3 2.5q7 8 10 15l1 1q2 2 0 6q-5 7 -5 12q0 10 12 17q6 3 10 3q6 0 10 -4t3 -10v-1q0 -3 -1 -5v-1q-9 -27 -27 -46q-3 -4 -10 -6q-4 -2 -7 -2z" />
    <glyph glyph-name="cent" unicode="&#xa2;" 
 />
    <glyph glyph-name="currency" unicode="&#xa4;" 
 />
    <glyph glyph-name="dollar" unicode="$" horiz-adv-x="269" 
d="M33.5 -59q-3.5 3 -3.5 8q0 10 5 23q12 44 19 65q2 8 2 10q0 8 -6 14q-19 22 -19 50q0 21 17 35q6 6 12 1q5 -3 5 -9q0 -4 -2 -9.5t-3 -7.5q-3 -6 -3 -11q0 -7 4 -14q0 -1 1.5 -2t2.5 -1q3 -1 6 2q4 10 5 15l51 159l5 19v2q0 7 -5 10q-20 12 -24 16q-17 15 -17 31
q0 13 14 29q21 23 53 37q21 9 31 35q8 26 20 58l10 29q1 2 3.5 9.5t7.5 13.5q4 4 8 4q5 0 8.5 -3t3.5 -8q0 -6 -5 -21l-25 -71l-6 -20q8 -4 16.5 -4.5t12.5 -0.5q12 -2 21 -8q8 -6 9 -13q1 -2 1 -6q0 -5 -4 -9q-8 -7 -15 0q-10 10 -27 10q-13 0 -20.5 -3.5t-10.5 -13.5
q-8 -24 -22 -72q-1 -2 -1 -5q0 -6 8 -11q25 -18 29 -21q18 -15 27.5 -35t9.5 -42t-10 -42q-34 -70 -102 -106l-15 -6q-4 -2 -15 -3.5t-16 -6.5q-6 -7 -8.5 -18.5t-4.5 -17.5q-5 -14 -14 -47q-4 -10 -7 -15t-9 -5q-5 0 -8.5 3zM143 329q13 24 14 46q0 1 -4 5h-3
q-22 -10 -33 -25q-3 -3 -3 -7q0 -3 3 -8q5 -7 18 -13q7 -2 8 2zM212 182q5 13 5 25q0 24 -16 44t-43 27l-6 -15l-52 -165q-1 -2 -2 -5t-1 -7q-2 -6 1 -9t9 -1q74 29 105 106z" />
    <glyph glyph-name="Euro" unicode="&#x20ac;" 
 />
    <glyph glyph-name="sterling" unicode="&#xa3;" 
 />
    <glyph glyph-name="yen" unicode="&#xa5;" 
 />
    <glyph glyph-name="plus" unicode="+" horiz-adv-x="157" 
d="M70 195l-1 -1l3 29l2 15q0 5 -4 5l-15 -3q-5 -1 -15 -1q-2 0 -5 0.5t-3 -1.5q-2 4 -2 6q0 5 3.5 8.5t8.5 3.5h-1q23 4 31 5q7 1 7 6q1 5 5 20v-1l3 21q2 12 13 10q3 -3 5 -8l-2 -8l-3 -16l-2 -16q0 -5 6 -5l13 1l17 1q13 0 22 -5q-1 0 1 -2.5t-1 -6.5q-1 -4 -4.5 -6
t-5.5 0q-10 2 -16 2q-11 0 -26 -3q-8 -1 -9 -2t-2 -8l-6 -37q-2 -9 -3 -10q-2 -5 -8 -5h-4q-3 6 -2 12z" />
    <glyph glyph-name="minus" unicode="&#x2212;" horiz-adv-x="168" 
d="M31 244l-1 2q0 2 3.5 5.5t6.5 3.5h-1l19 3h1h39l57 3q6 0 8 -1q7 -2 5 -8q0 -6 -7 -8q-9 -3 -12 -3l-109 -2h-3q-5 4 -6 5z" />
    <glyph glyph-name="multiply" unicode="&#xd7;" horiz-adv-x="144" 
d="M31 202q-2 4 -1 7q1 1 1.5 3.5t3.5 4.5l23 22q16 12 16 15q0 4 -12 11q-6 5 -9 9t-5 11q4 5 9.5 6t8.5 -3h-1q12 -9 22 -19q4 -3 8 1l17 12l18 15q2 2 6 2q5 0 8 -4l-2 -10q-4 -2 -7 -5l-15 -12q-3 -3 -9 -7.5t-6 -6.5q0 -4 10 -14l6.5 -6.5t9 -11.5t3.5 -12q-1 -7 -7 -9
q-3 -2 -6 -1t-4 4q-8 19 -24 29q-5 5 -7 5q-1 0 -3 -1.5t-4 -3.5l-31 -26l-10 -7q-4 -1 -7 2z" />
    <glyph glyph-name="divide" unicode="&#xf7;" horiz-adv-x="168" 
d="M99 298q0 15 14 15q5 0 8.5 -3t3.5 -7q0 -6 -5 -10.5t-12 -4.5q-9 0 -9 10zM31 245l-1 2q0 2 3.5 5.5t6.5 3.5h-1l19 3h1h39l57 3q6 0 8 -1q7 -2 5 -8q0 -6 -7 -8q-9 -3 -12 -3l-109 -2h-3q-5 4 -6 5zM86 188q-6 0 -8.5 4.5t-0.5 10.5q5 11 14 9q7 -3 7 -10
q0 -5 -3.5 -9.5t-7.5 -4.5h-1z" />
    <glyph glyph-name="equal" unicode="=" horiz-adv-x="184" 
d="M47 289l-1 2q0 3 3 6t7 3h-1l19 3v0h40l57 3q6 0 8 -1q7 -2 5 -8q0 -6 -7 -8q-9 -3 -13 -3l-108 -2h-3q-5 3 -6 5zM31 199l-1 2q0 3 3 6t7 3h-1l19 3v0h40l57 3q6 0 8 -1q7 -2 5 -8q0 -6 -7 -8q-9 -3 -12 -3l-109 -2h-3q-5 3 -6 5z" />
    <glyph glyph-name="notequal" unicode="&#x2260;" 
 />
    <glyph glyph-name="greater" unicode="&#x3e;" horiz-adv-x="181" 
d="M181 271q0 -6 -6 -12q-2 -2 -5 -4t-4 -3q-58 -40 -114 -92l-5 -5t-9 -5h-1h-4q-3 2 -3 6q0 5 2.5 8.5t3.5 4.5l1 1l24 21q8 6 24 20q20 19 67 53q3 2 3.5 3.5t-1.5 2.5q-32 18 -58 34q-8 4 -24 14l-4 2q-2 2 -7.5 4t-8.5 6.5t0 13.5q4 2 10 2q7 0 12 -4t7 -5
q25 -15 29 -17q15 -10 17 -11l38 -22q8 -4 12 -7q4 -4 4 -9z" />
    <glyph glyph-name="less" unicode="&#x3c;" horiz-adv-x="181" 
d="M181 343q0 -4 -2.5 -7t-3.5 -4v-1q-20 -16 -30 -25q-20 -17 -19 -16q-23 -22 -67 -53q-3 -2 -3 -3.5t2 -2.5q23 -12 81 -48l4 -2q2 -2 7.5 -4t8.5 -6.5t0 -13.5q-4 -2 -10 -2q-7 0 -12 4t-7 5l-46 28l-38 22q-8 4 -12 7q-4 4 -4 9q0 6 6 12q2 2 5 4t4 3q58 40 114 92l5 5
t9 5h1h4q3 -1 3 -6v-2z" />
    <glyph glyph-name="greaterequal" unicode="&#x2265;" 
 />
    <glyph glyph-name="lessequal" unicode="&#x2264;" 
 />
    <glyph glyph-name="plusminus" unicode="&#xb1;" 
 />
    <glyph glyph-name="approxequal" unicode="&#x2248;" 
 />
    <glyph glyph-name="asciitilde" unicode="~" 
 />
    <glyph glyph-name="logicalnot" unicode="&#xac;" 
 />
    <glyph glyph-name="emptyset" unicode="&#x2205;" 
 />
    <glyph glyph-name="infinity" unicode="&#x221e;" 
 />
    <glyph glyph-name="integral" unicode="&#x222b;" 
 />
    <glyph glyph-name="product" unicode="&#x220f;" 
 />
    <glyph glyph-name="summation" unicode="&#x2211;" 
 />
    <glyph glyph-name="radical" unicode="&#x221a;" 
 />
    <glyph glyph-name="partialdiff" unicode="&#x2202;" 
 />
    <glyph glyph-name="percent" unicode="%" horiz-adv-x="395" 
d="M382 484q7 0 10.5 -6t1.5 -12q-4 -10 -18 -24q-41 -43 -88 -101q-51 -65 -149 -197l-56 -75q-1 -2 -9 -13t-11 -24q-3 -10 -13 -14t-15 1q-7 4 -5 15q4 10 7 14q6 11 13 19l38 52q14 19 78.5 105.5t124.5 161.5l14 16l28 32q-3 2 -9 2t-9 -1l-110 -30l-25 -9
q-17 -4 -19 -23q-2 -28 -19 -48q-13 -13 -25 -15q-11 -2 -19 3t-12 15q-3 6 -3 13q0 51 31 83q11 12 21 12q8 0 21 -10q10 -7 18 -4q29 10 79 23q6 2 41.5 11.5t67.5 22.5q6 3 19 5h1zM334 435q-2 0 -3 1l3 -2v1zM140 404q0 2 -0.5 3.5t-1.5 2.5q-7 0 -8 -2
q-10 -11 -14.5 -23t-8.5 -32q0 -2 0.5 -7t6.5 -7q6 0 11 7q8 11 9 23zM314 128q2 -10 2 -15q0 -24 -16.5 -41.5t-42.5 -16.5q-24 -1 -37 16t-12 38q0 41 26 76q3 5 12 11q6 4 12 4q5 0 10 -3t6 -8q3 -10 17 -22q17 -15 23 -39zM282.5 92q7.5 9 7.5 21q0 6 -1 9
q-4 13 -12.5 23t-23.5 21q-14 -19 -18 -48v-5q0 -10 1 -14q5 -20 26 -18q13 2 20.5 11z" />
    <glyph glyph-name="perthousand" unicode="&#x2030;" 
 />
    <glyph glyph-name="lozenge" unicode="&#x25ca;" 
 />
    <glyph glyph-name="at" unicode="@" horiz-adv-x="485" 
d="M200 0q-77 0 -128 69q-42 58 -42 129q0 30 5 52q13 63 41 113q39 71 108 111q59 34 123 34q36 0 70 -10q80 -23 104 -104q4 -12 4 -28q0 -9 -1 -14q-8 -73 -51 -126q-22 -27 -50 -35q-10 -3 -20 -3q-19 0 -33.5 11.5t-21.5 31.5q-2 8 -3.5 15.5t-3.5 14.5q-9 -2 -15 -10
t-8 -10q-34 -34 -45 -43q-24 -17 -41 -21q-4 -1 -12 -1q-16 0 -27 9.5t-13 26.5v7q0 7 2 19q21 65 84 94q12 6 25 6q4 0 14 -2q14 -5 17 -18q0 -5 -2 -9q-2 -2 -4.5 -2.5t-4.5 0.5q-9 6 -18 6q-13 0 -28 -10q-43 -25 -57 -69q-3 -12 -3 -13q0 -8 6 -14q5 -5 11 -5q5 0 9.5 2
t6.5 3q20 9 39 30q51 51 81 98q5 9 9 12t11 2t7 -11q0 -3 -2 -15q-5 -18 -7.5 -31.5t-4.5 -22.5q-1 -4 -1 -12q0 -11 5 -23q4 -11 14.5 -16t22.5 -3q23 6 36 22q50 58 50 128q0 65 -69 100q-34 17 -75 17q-23 0 -43 -4q-104 -19 -166 -117q-49 -79 -49 -165q0 -70 48 -124
q41 -46 97 -46q39 0 76 21q37 22 80 67q4 5 9 14.5t10 15.5q6 10 14 4q10 -3 8 -13q-5 -21 -18 -34q-48 -53 -96 -79q-39 -22 -84 -22z" />
    <glyph glyph-name="ampersand" unicode="&#x26;" horiz-adv-x="259" 
d="M97 -74q-4 0 -8 2.5t-5 6.5q-2 12 -2 18q0 7 2 21l9 42q1 3 3 10.5t0 14.5q-5 4 -13 4t-12 1q-19 5 -30 17t-11 29q0 13 5 24q18 45 62 79l19 12q6 5 6 8t-6 6l-12 5q-32 17 -32 46q0 10 3 22q7 24 31 49q33 34 69 49q14 6 20 24q6 22 22 64q2 6 10 21q4 7 10 10t11 0
q4 -3 4 -10t-2 -11l-22 -51q-2 -6 -7 -25v-2q0 -5 6 -8l21 -8q10 -5 11 -15q0 -6 -5.5 -11t-9.5 -2q-15 9 -27 9q-11 0 -21 -4t-25 -12q-28 -14 -53 -43q-14 -20 -17 -31q-3 -7 -3 -15q0 -18 21 -24q14 -4 32 -8t25 -5q13 -3 18 -6.5t4 -8.5q-1 -7 -5.5 -9.5t-14.5 -4.5
q-68 -21 -105 -73q-1 -2 -7 -12t-9 -20q-1 -3 -1 -8q0 -11 14 -19q10 -4 17 -4q3 0 11 2q62 14 106 50q9 7 16.5 18.5t9.5 14.5t6 4t8 -1q9 -4 7 -14q-1 -4 -5 -12q-10 -18 -28 -32q-31 -26 -53 -32q-21 -7 -31.5 -20t-14.5 -36q-1 -9 -5 -22q-1 -4 -4 -20.5t-2 -31.5v-2
q0 -7 -9 -10h-2z" />
    <glyph glyph-name="paragraph" unicode="&#xb6;" 
 />
    <glyph glyph-name="section" unicode="&#xa7;" 
 />
    <glyph glyph-name="copyright" unicode="&#xa9;" 
 />
    <glyph glyph-name="registered" unicode="&#xae;" 
 />
    <glyph glyph-name="trademark" unicode="&#x2122;" horiz-adv-x="1007" 
d="M1057 210q-2 -8 -9 -18q-86 -116 -109 -128q-18 -8 -30 -8q-21 0 -40 23q-17 22 -21 43q-4 20 -13 74l-8 52q-2 10 -4 16q-4 12 -13 12q-5 0 -12 -5t-15 -12.5t-12 -11.5q-36 -40 -78 -97q-15 -20 -32 -41q-13 -16 -27 -24q-9 -6 -18 -6q-8 0 -14.5 6.5t-8.5 18.5
q-1 5 -1 12t-1 11q2 41 17 96q6 20 26 86l13 43q16 54 20 82q2 7 2 23q0 4 -5 4t-10.5 -3.5t-8.5 -5.5q-38 -29 -73 -71q-78 -97 -133 -213q-27 -56 -79 -170l-13 -28q-7 -16 -23 -48q-8 -15 -18 -27q-6 -6 -13 -6q-12 0 -15 13q-2 10 -2 21.5v14.5q0 47 17 126
q18 88 65 229q2 8 11 35l62 195l-58 -6l-81 -9l-46 -6q-20 -1 -25 -24q-53 -222 -85 -420l-19 -116q-2 -16 -8 -21q-4 -4 -9 -4q-7 0 -9 7q-2 6 -2 8q0 4 2 12l24 145q30 181 77 372q2 7 4 19v3q0 5 -3 7t-8 1q-39 -6 -73 -15q-29 -5 -110 -23l-60 -13q-16 -4 -26 -2
q-6 2 -6 7q0 2 1 5t2 4q8 6 28 10l153 33q62 14 93 19q11 2 17 7t7 15q2 14 8 32q1 6 5.5 9.5t8.5 1.5q9 -5 7 -17l-4 -22l-1 -5q0 -10 18 -9q32 5 46 7l140 14q4 8 7 12q4 5 8.5 6.5t8.5 -0.5q9 -7 6 -15l35 4h23q8 -1 9 -9v-2q0 -7 -7 -11l-13 -3l-57 -5q-6 -15 -12 -36.5
t-9 -31.5l-9 -30q-5 -17 -11.5 -36.5t-13.5 -42.5q-36 -109 -59 -183q-29 -95 -40 -185q-2 -10 -2 -16q0 -1 -0.5 -5.5t4.5 -4.5q4 0 6 3.5t3 4.5l13 30l28 61q22 50 40 88q60 130 136 231q43 56 85 91l29 21q6 3 18 7q11 2 19 -3.5t10 -16.5q2 -12 2 -17q0 -2 -3 -29
q-9 -46 -28 -104q-29 -90 -38 -132q-10 -42 -10 -65q0 -8 4 -11q1 -1 4 -1q5 0 8 5q22 24 31 37q6 8 29.5 39t46.5 56q16 19 39 40q15 13 32 13q22 0 32 -19q7 -14 10 -31l12 -88q6 -36 14 -53q13 -29 32 -29q14 0 30 13q5 4 42 53q10 15 49 66q2 1 3.5 3t4.5 3q6 4 12 -1
q7 -3 5 -10z" />
    <glyph glyph-name="degree" unicode="&#xb0;" 
 />
    <glyph glyph-name="bar" unicode="|" horiz-adv-x="183" 
d="M30 -49q0 11 5 31l52 280q10 56 35 148q12 42 14 52l23 82q1 2 2.5 7.5t5.5 9.5t9 2q4 -1 6 -7q1 -2 1 -5q0 -4 -1 -7.5t-2 -6.5l-41 -158q-13 -48 -23 -103.5t-13 -69.5l-9 -48l-30 -161q0 -3 -1.5 -10t-0.5 -12l2 -8q0 -8 -10 -22q-5 -8 -12 -8q-12 0 -12 14z" />
    <glyph glyph-name="brokenbar" unicode="&#xa6;" 
 />
    <glyph glyph-name="dagger" unicode="&#x2020;" 
 />
    <glyph glyph-name="daggerdbl" unicode="&#x2021;" 
 />
    <glyph glyph-name="asciicircum" unicode="^" 
 />
  </font>
</defs>
</svg>
